<?xml version="1.0" encoding="UTF-8"?><svg id="_레이어_1" xmlns="http://www.w3.org/2000/svg" viewBox="0 0 423.96 423.96"><defs><style>.cls-1{fill:#00381f;}.cls-2{fill:#fcfcfc;}.cls-3{fill:#fff;}.cls-4{fill:#fafafa;}.cls-5{fill:#fdfbfb;}.cls-6{fill:#fdfdfe;}.cls-7{fill:#fdfefd;}.cls-8{fill:#20793a;}</style></defs><circle class="cls-1" cx="211.98" cy="211.98" r="211.98"/><path class="cls-6" d="M211.98,418.52c-27.88,0-54.93-5.46-80.4-16.23-24.6-10.4-46.68-25.29-65.65-44.26-18.97-18.97-33.86-41.06-44.26-65.65-10.77-25.47-16.23-52.52-16.23-80.4s5.46-54.93,16.23-80.4c10.4-24.6,25.3-46.68,44.26-65.65,18.97-18.97,41.06-33.86,65.65-44.26,25.47-10.77,52.52-16.23,80.4-16.23s54.93,5.46,80.4,16.23c24.6,10.4,46.68,25.29,65.65,44.26,18.97,18.97,33.86,41.05,44.26,65.65,10.77,25.47,16.23,52.52,16.23,80.4s-5.46,54.93-16.23,80.4c-10.4,24.6-25.29,46.68-44.26,65.65-18.97,18.97-41.05,33.86-65.65,44.26-25.47,10.77-52.52,16.23-80.4,16.23Zm0-403.74c-26.62,0-52.45,5.21-76.76,15.5-23.48,9.93-44.57,24.15-62.68,42.26-18.11,18.11-32.33,39.2-42.26,62.68-10.28,24.31-15.5,50.13-15.5,76.76s5.21,52.45,15.5,76.76c9.93,23.48,24.15,44.57,42.26,62.68,18.11,18.11,39.2,32.33,62.68,42.26,24.31,10.28,50.13,15.5,76.76,15.5s52.45-5.21,76.76-15.5c23.48-9.93,44.57-24.15,62.68-42.26,18.11-18.11,32.33-39.2,42.26-62.68,10.28-24.31,15.5-50.13,15.5-76.76s-5.21-52.45-15.5-76.76c-9.93-23.48-24.15-44.57-42.26-62.68-18.11-18.11-39.2-32.33-62.68-42.26-24.31-10.28-50.13-15.5-76.76-15.5Z"/><g><g><path class="cls-3" d="M65.67,205.08l.13,3.1-11.95,.5,12.14,4.03-11.76,5.04,11.95-.5,.13,3.1-20.64,.87-.13-3.1,11.39-5.02-11.77-4.04-.13-3.1,20.64-.87Z"/><path class="cls-3" d="M45.23,221.69l-.16-3.88,10.59-4.67-10.95-3.76-.16-3.88,21.57-.91,.17,4.03-9.87,.42,10.89,3.61-10.55,4.52,9.87-.42,.17,4.03-21.57,.91Zm.8-3.29l.1,2.31,19.71-.83-.09-2.16-14.03,.59,12.97-5.55-13.39-4.44,14.03-.59-.09-2.17-19.71,.83,.1,2.31,12.6,4.33-12.19,5.37Z"/></g><g><path class="cls-3" d="M66.12,196.66l-.16,3.16-20.63-1.01,.15-3.16,20.63,1.01Z"/><path class="cls-3" d="M66.41,200.31l-21.57-1.06,.2-4.09,21.57,1.06-.2,4.09Zm-20.59-1.95l19.7,.97,.11-2.22-19.7-.97-.11,2.22Z"/></g><g><path class="cls-3" d="M68.49,176.24l-.44,3.07-11.84-1.68,11.21,6.17-12.48,2.81,11.84,1.68-.44,3.07-20.45-2.9,.44-3.07,12.12-2.86-10.84-6.12,.44-3.07,20.45,2.9Z"/><path class="cls-3" d="M66.74,191.89l-21.38-3.03,.55-3.85,11.26-2.66-10.08-5.69,.55-3.85,21.38,3.03-.57,4-9.78-1.39,10.05,5.53-11.2,2.52,9.78,1.39-.57,4Zm-20.32-3.83l19.53,2.77,.3-2.15-13.91-1.97,13.77-3.1-12.36-6.81,13.91,1.97,.3-2.15-19.53-2.77-.32,2.29,11.6,6.55-12.97,3.06-.33,2.29Z"/></g><g><path class="cls-3" d="M70.48,168.05l-.73,3.07-20.1-4.78,.73-3.07,20.1,4.78Z"/><path class="cls-3" d="M70.09,171.69l-21-5,.95-3.98,21,5-.95,3.98Zm-19.88-5.69l19.19,4.57,.52-2.16-19.19-4.57-.52,2.16Z"/></g><g><path class="cls-3" d="M71.25,155.01c.44-1.38,.09-2.59-1.06-3.65l2.35-2.27c2.04,1.94,2.64,4.25,1.81,6.96-.73,2.18-2.18,3.57-4.34,4.15-2.17,.58-4.85,.34-8.05-.73-3.2-1.07-5.49-2.48-6.87-4.25-1.38-1.77-1.71-3.74-.98-5.93,.95-2.66,2.83-4.16,5.62-4.48l.52,3.23c-1.55,.16-2.56,.92-3.04,2.29-.43,1.3-.1,2.46,1,3.48,1.1,1.03,2.69,1.89,4.78,2.58,2.09,.7,3.88,.96,5.37,.8,1.49-.16,2.46-.89,2.89-2.18Z"/><path class="cls-3" d="M67.53,160.96c-1.69,0-3.61-.35-5.71-1.06-3.27-1.09-5.66-2.57-7.09-4.41-1.48-1.89-1.83-4.03-1.06-6.36,1.02-2.84,3.04-4.45,6.01-4.79l.44-.05,.66,4.15-.49,.05c-1.37,.14-2.23,.79-2.65,1.98-.37,1.11-.08,2.09,.88,2.98,1.04,.97,2.59,1.81,4.61,2.48,2.01,.67,3.75,.93,5.17,.78,1.31-.14,2.12-.75,2.5-1.86,.38-1.2,.08-2.23-.93-3.17l-.36-.34,3.03-2.92,.32,.31c2.17,2.06,2.82,4.56,1.93,7.43-.78,2.34-2.35,3.84-4.67,4.46-.8,.21-1.67,.32-2.6,.32Zm-8.18-15.63c-2.38,.4-3.95,1.75-4.79,4.11-.68,2.03-.38,3.83,.91,5.48,1.32,1.69,3.56,3.06,6.65,4.1,3.09,1.03,5.71,1.28,7.78,.72,2.02-.54,3.34-1.8,4.02-3.85,.74-2.39,.29-4.41-1.37-6.15l-1.68,1.62c1,1.11,1.28,2.38,.84,3.79h0c-.49,1.48-1.6,2.33-3.28,2.51-1.55,.17-3.43-.11-5.57-.83-2.14-.72-3.81-1.62-4.95-2.68-1.24-1.16-1.62-2.49-1.13-3.97,.49-1.4,1.48-2.25,2.95-2.53l-.37-2.31Z"/></g><g><path class="cls-3" d="M87.73,126.34l-1.6,2.72-17.8-10.49,1.6-2.72,17.8,10.49Z"/><path class="cls-3" d="M86.29,129.7l-18.6-10.96,2.08-3.53,18.6,10.96-2.08,3.53Zm-17.32-11.29l16.99,10.01,1.13-1.92-16.99-10.01-1.13,1.92Z"/></g><g><path class="cls-3" d="M82.66,105.23c-1.35-.2-2.41,.22-3.19,1.27-.44,.62-.61,1.28-.51,1.98,.1,.7,.44,1.24,1,1.62,.4,.29,.89,.36,1.48,.21,.58-.14,1.23-.57,1.95-1.29,1.73-1.67,3.41-2.57,5.04-2.71,1.63-.14,3.1,.26,4.4,1.19,1.44,1.03,2.34,2.46,2.71,4.29,.37,1.83,0,3.51-1.1,5.05-1.79,2.42-4.39,3.3-7.81,2.64l.45-3.32c2.15,.42,3.7-.03,4.65-1.35,.56-.75,.75-1.61,.58-2.58-.18-.97-.65-1.73-1.42-2.28-.51-.39-1.17-.54-2-.46-.83,.08-1.75,.6-2.78,1.57-1.33,1.35-2.65,2.17-3.97,2.44-1.32,.27-2.5,.04-3.54-.7-1.26-.86-2.1-2.09-2.53-3.69s-.14-3.11,.87-4.52c1.47-1.94,3.52-2.71,6.13-2.3l-.39,2.92Z"/><path class="cls-3" d="M88.7,120.17c-.69,0-1.41-.07-2.17-.22l-.43-.08,.57-4.25,.49,.09c1.98,.38,3.34,0,4.18-1.16,.49-.65,.65-1.38,.5-2.22-.16-.85-.56-1.5-1.23-1.98-.42-.32-.97-.44-1.68-.38-.72,.07-1.56,.55-2.5,1.45-1.37,1.4-2.79,2.27-4.2,2.56-1.45,.3-2.76,.04-3.91-.78-1.34-.91-2.25-2.24-2.71-3.95-.47-1.74-.15-3.39,.95-4.92,1.59-2.09,3.8-2.93,6.58-2.49l.45,.07-.51,3.85-.47-.07c-1.17-.17-2.07,.18-2.75,1.09-.37,.51-.51,1.05-.42,1.63,.09,.57,.35,1,.8,1.3,.3,.21,.66,.26,1.1,.15,.5-.12,1.08-.51,1.73-1.16,1.8-1.74,3.59-2.69,5.33-2.84,1.74-.15,3.32,.28,4.71,1.28,1.53,1.1,2.5,2.64,2.9,4.57,.4,1.95,0,3.77-1.18,5.41-1.5,2.03-3.55,3.04-6.11,3.04Zm-1.56-1.06c3.04,.48,5.31-.36,6.92-2.53,1.03-1.43,1.36-2.97,1.02-4.68-.35-1.72-1.18-3.03-2.53-4-1.2-.86-2.58-1.24-4.09-1.11-1.51,.13-3.11,1-4.75,2.58-.78,.78-1.49,1.24-2.16,1.4-.72,.18-1.35,.08-1.86-.29-.66-.45-1.07-1.1-1.19-1.93-.12-.82,.08-1.6,.59-2.32,.8-1.07,1.86-1.58,3.17-1.51l.27-2.01c-2.23-.23-3.95,.48-5.23,2.18-.93,1.29-1.19,2.64-.79,4.12,.4,1.51,1.17,2.63,2.34,3.42,.94,.68,1.98,.88,3.18,.63,1.22-.25,2.48-1.03,3.73-2.31,1.13-1.07,2.13-1.62,3.07-1.71,.95-.09,1.73,.1,2.33,.56,.85,.61,1.39,1.48,1.59,2.57,.2,1.1-.02,2.09-.66,2.94-.98,1.36-2.53,1.9-4.62,1.61l-.32,2.39Z"/></g><g><path class="cls-3" d="M124.49,85.38l-2.38,1.99-7.66-9.19,4.18,12.09-11.15-6.28,7.66,9.19-2.38,1.99-13.23-15.86,2.38-1.99,10.91,6-3.94-11.81,2.38-1.99,13.23,15.86Z"/><path class="cls-3" d="M112.7,95.82l-13.83-16.58,2.98-2.49,10.14,5.58-3.67-10.98,2.98-2.49,13.83,16.58-3.1,2.58-6.33-7.59,3.75,10.85-10-5.63,6.33,7.59-3.1,2.59Zm-12.52-16.46l12.63,15.15,1.66-1.39-9-10.79,12.29,6.93-4.61-13.34,9,10.79,1.66-1.39-12.63-15.15-1.78,1.48,4.22,12.64-11.68-6.42-1.78,1.48Z"/></g><g><path class="cls-3" d="M141.17,74.63l-2.78,1.74-4.71-3.89-5.18,3.24,1.44,5.94-2.8,1.75-5.25-21.08,2.63-1.64,16.66,13.94Zm-10.2-4.38l-4.71-3.89,1.39,5.97,3.32-2.08Z"/><path class="cls-3" d="M126.83,84.15l-5.49-22.04,3.2-2,17.42,14.57-3.61,2.26-4.71-3.89-4.61,2.89,1.44,5.94-3.63,2.27Zm-4.42-21.6l5.01,20.13,1.97-1.23-1.44-5.94,5.75-3.6,4.71,3.89,1.95-1.22-15.91-13.31-2.05,1.29Zm4.93,10.52l-1.85-7.95,6.28,5.18-4.43,2.77Zm-.31-5.47l.93,3.99,2.22-1.39-3.15-2.6Z"/></g><g><path class="cls-3" d="M147.87,51.92l-4.13,1.88,7.35,16.17-2.82,1.28-7.35-16.17-4.08,1.85-1.2-2.64,11.03-5.01,1.2,2.64Z"/><path class="cls-3" d="M148.03,71.87l-7.35-16.17-4.08,1.85-1.59-3.49,11.88-5.4,1.59,3.49-4.13,1.88,7.35,16.17-3.67,1.67Zm-6.88-17.4l7.35,16.17,1.97-.9-7.35-16.17,4.13-1.88-.81-1.79-10.18,4.62,.81,1.79,4.08-1.85Z"/></g><g><path class="cls-3" d="M171.95,62.28l-2.95,.96-2.77-8.53-6.79,2.21,2.78,8.53-2.95,.96-6.39-19.64,2.95-.96,2.58,7.95,6.79-2.21-2.58-7.95,2.95-.96,6.39,19.64Z"/><path class="cls-3" d="M158.96,66.99l-6.68-20.53,3.84-1.25,2.58,7.95,5.9-1.92-2.58-7.95,3.84-1.25,6.68,20.53-3.84,1.25-2.77-8.53-5.9,1.92,2.78,8.53-3.84,1.25Zm-5.5-19.93l6.1,18.76,2.06-.67-2.78-8.53,7.68-2.5,2.77,8.53,2.06-.67-6.1-18.76-2.06,.67,2.58,7.95-7.68,2.5-2.58-7.95-2.06,.67Z"/></g><g><path class="cls-3" d="M198.07,57.86l-3.15,.28-1.86-20.57,3.15-.28,1.86,20.57Z"/><path class="cls-3" d="M194.5,58.65l-1.95-21.5,4.08-.37,1.95,21.5-4.08,.37Zm-.93-20.66l1.78,19.64,2.22-.2-1.78-19.64-2.22,.2Z"/></g><g><path class="cls-3" d="M216.79,57.46h-2.75s-7.42-14.05-7.42-14.05l-.07,14-3.1-.02,.1-20.66h3.1s7.07,13.25,7.07,13.25l.06-13.2,3.1,.02-.1,20.66Z"/><path class="cls-3" d="M217.25,57.93l-3.5-.02-6.68-12.63-.06,12.6-4.04-.02,.11-21.59,3.85,.02,6.34,11.85,.06-11.82,4.04,.02-.1,21.59Zm-2.93-.95h2s.1-19.71,.1-19.71h-2.17s-.07,14.56-.07,14.56l-7.81-14.61h-2.36s-.1,19.71-.1,19.71h2.17s.08-15.38,.08-15.38l8.16,15.43Z"/></g><g><path class="cls-3" d="M235.26,41.62l-4.5-.55-2.16,17.63-3.08-.38,2.16-17.63-4.44-.55,.35-2.88,12.02,1.48-.35,2.88Z"/><path class="cls-3" d="M229,59.21l-4.01-.49,2.16-17.63-4.44-.55,.47-3.8,12.95,1.59-.47,3.8-4.5-.55-2.16,17.63Zm-2.96-1.31l2.15,.26,2.16-17.63,4.5,.55,.24-1.95-11.1-1.36-.24,1.95,4.44,.55-2.16,17.63Z"/></g><g><path class="cls-3" d="M249.26,62.84l-11.84-2.81,4.78-20.1,11.24,2.67-.76,3.18-8.23-1.95-1.18,4.95,5.55,1.32-.77,3.24-5.55-1.32-1.3,5.49,8.82,2.1-.77,3.24Z"/><path class="cls-3" d="M249.6,63.4l-12.75-3.03,4.99-21.01,12.15,2.89-.97,4.09-8.23-1.95-.96,4.04,5.55,1.32-.99,4.15-5.55-1.32-1.09,4.58,8.82,2.1-.99,4.15Zm-11.63-3.72l10.93,2.6,.55-2.33-8.82-2.1,1.52-6.4,5.55,1.32,.55-2.33-5.55-1.32,1.39-5.86,8.23,1.95,.54-2.27-10.34-2.46-4.56,19.19Z"/></g><g><path class="cls-3" d="M265.95,68.57l-3.17-1.14,.07-9.51-3.5-1.26-3.04,8.44-2.92-1.05,7.01-19.43,7.29,2.63c1.5,.56,2.48,1.57,2.94,3.01,.46,1.45,.45,2.85-.04,4.2-.37,1.03-.99,1.9-1.85,2.63-.86,.73-1.79,1.14-2.78,1.24l-.02,10.25Zm1.73-15.07c.27-.75,.27-1.41-.02-1.97-.29-.56-.69-.95-1.22-1.16l-4.27-1.54-1.73,4.79,4.38,1.58c.55,.2,1.09,.15,1.63-.13,.54-.29,.94-.81,1.22-1.56Z"/><path class="cls-3" d="M266.42,69.23l-4.1-1.48,.07-9.51-2.74-.99-3.04,8.44-3.8-1.37,7.32-20.31,7.73,2.79c1.64,.61,2.72,1.73,3.23,3.31,.49,1.54,.48,3.05-.04,4.5-.4,1.1-1.07,2.05-1.99,2.83-.81,.68-1.69,1.12-2.61,1.29l-.03,10.51Zm-3.16-2.13l2.23,.8,.02-10.01,.42-.04c.89-.09,1.74-.47,2.53-1.14,.79-.67,1.37-1.49,1.71-2.43,.45-1.25,.46-2.56,.03-3.9-.42-1.31-1.29-2.2-2.66-2.72l-6.85-2.47-6.69,18.55,2.04,.73,3.04-8.44,4.25,1.53-.07,9.51Zm2.25-11.32c-.28,0-.55-.05-.83-.15l-4.82-1.74,2.04-5.66,4.71,1.7c.65,.26,1.14,.73,1.47,1.39,.34,.68,.36,1.47,.04,2.34h0c-.31,.86-.79,1.47-1.44,1.82-.39,.21-.78,.31-1.18,.31Zm-4.45-2.45l3.94,1.42c.43,.15,.84,.12,1.26-.1,.44-.23,.76-.66,1-1.31,.23-.63,.23-1.16,0-1.6-.23-.46-.55-.77-.97-.94l-3.81-1.37-1.41,3.91Z"/></g><g><path class="cls-3" d="M277.69,70.85c1.3,.62,2.56,.44,3.76-.54l1.92,2.64c-2.2,1.75-4.58,2.03-7.14,.83-2.06-1.02-3.23-2.65-3.51-4.87-.28-2.23,.33-4.85,1.83-7.87,1.5-3.02,3.22-5.09,5.16-6.22,1.94-1.13,3.94-1.18,6-.15,2.51,1.31,3.73,3.37,3.66,6.19l-3.27,.07c.05-1.56-.56-2.66-1.85-3.32-1.22-.61-2.42-.44-3.59,.51-1.17,.95-2.24,2.41-3.22,4.38-.98,1.97-1.49,3.71-1.54,5.21-.05,1.5,.54,2.56,1.76,3.16Z"/><path class="cls-3" d="M279.27,74.98c-1.05,0-2.13-.26-3.23-.78-2.21-1.1-3.48-2.86-3.78-5.24-.29-2.31,.34-5.04,1.87-8.13,1.53-3.09,3.33-5.25,5.34-6.41,2.08-1.2,4.24-1.26,6.45-.17,2.67,1.4,3.99,3.62,3.92,6.62v.45s-4.22,.09-4.22,.09l.02-.49c.05-1.37-.47-2.32-1.59-2.89-1.05-.52-2.06-.37-3.08,.46-1.11,.9-2.15,2.32-3.09,4.22-.94,1.9-1.44,3.59-1.49,5.02-.04,1.31,.45,2.21,1.5,2.73,1.13,.54,2.2,.38,3.26-.48l.38-.31,2.48,3.4-.35,.28c-1.39,1.11-2.86,1.66-4.4,1.66Zm3.54-20.58c-.97,0-1.92,.27-2.87,.83-1.85,1.07-3.52,3.1-4.97,6.02-1.45,2.92-2.05,5.48-1.78,7.6,.26,2.08,1.32,3.56,3.25,4.51,2.26,1.06,4.33,.9,6.28-.51l-1.38-1.89c-1.24,.84-2.53,.94-3.87,.31h0c-1.4-.7-2.08-1.91-2.02-3.6,.05-1.56,.58-3.38,1.59-5.4,1-2.02,2.13-3.55,3.34-4.53,1.32-1.07,2.69-1.26,4.09-.57,1.32,.68,2.02,1.77,2.1,3.27l2.34-.05c-.07-2.41-1.19-4.15-3.41-5.31-.91-.45-1.81-.68-2.69-.68Z"/></g><g><path class="cls-3" d="M296.83,85.56l-2.61-1.68,4.87-7.54-6-3.87-4.87,7.54-2.61-1.68,11.2-17.36,2.61,1.68-4.53,7.02,6,3.87,4.53-7.02,2.61,1.68-11.2,17.36Z"/><path class="cls-3" d="M296.97,86.21l-3.39-2.19,4.87-7.54-5.21-3.36-4.87,7.54-3.39-2.19,11.71-18.14,3.39,2.19-4.53,7.02,5.21,3.37,4.53-7.02,3.39,2.19-11.71,18.14Zm-2.1-2.47l1.82,1.18,10.7-16.57-1.82-1.18-4.53,7.02-6.78-4.38,4.53-7.02-1.82-1.18-10.7,16.57,1.82,1.18,4.87-7.54,6.78,4.38-4.87,7.54Z"/></g><g><path class="cls-3" d="M312.43,98.05l-2.53-2.08,2.2-5.7-4.72-3.89-5.18,3.24-2.55-2.1,18.33-11.66,2.39,1.97-7.94,20.22Zm.93-11.06l2.2-5.7-5.22,3.21,3.03,2.49Z"/><path class="cls-3" d="M312.63,98.82l-3.29-2.71,2.2-5.7-4.2-3.46-5.18,3.24-3.31-2.73,19.16-12.19,2.92,2.4-8.3,21.14Zm-2.17-3l1.77,1.46,7.58-19.31-1.87-1.54-17.5,11.14,1.79,1.48,5.18-3.24,5.24,4.32-2.2,5.7Zm3.1-8.06l-4.03-3.32,6.96-4.27-2.93,7.59Zm-2.43-3.21l2.02,1.66,1.47-3.81-3.49,2.14Z"/></g><g><path class="cls-3" d="M324.14,110.05l-1.91-1.98,4.88-15.11-10.08,9.71-2.15-2.23,14.88-14.33,2.15,2.23-4.55,14.3,9.5-9.15,2.15,2.23-14.88,14.33Z"/><path class="cls-3" d="M324.13,110.71l-2.43-2.52,4.4-13.6-9.08,8.74-2.8-2.91,15.55-14.98,2.67,2.77-4.08,12.8,8.51-8.2,2.8,2.91-15.55,14.98Zm-1.36-2.76l1.39,1.44,14.2-13.68-1.5-1.56-10.5,10.11,5.03-15.79-1.63-1.7-14.2,13.68,1.5,1.56,11.09-10.68-5.37,16.61Z"/></g><g><path class="cls-3" d="M333.6,117.13c1.1,1.37,2.75,1.41,4.94,.15l-1.84-2.39,2.74-2.11,4,5.19-.71,.55c-2.54,1.93-4.81,2.92-6.83,2.99-2.02,.06-3.64-.7-4.86-2.29-1.42-1.88-1.77-3.89-1.05-6.01,.73-2.12,2.42-4.21,5.09-6.27,2.67-2.06,5.12-3.17,7.36-3.33,2.24-.16,4.06,.67,5.46,2.49,1.68,2.28,1.87,4.67,.58,7.16l-2.96-1.37c.73-1.38,.66-2.64-.2-3.8-.83-1.08-1.98-1.45-3.45-1.11-1.46,.34-3.07,1.18-4.81,2.52-1.74,1.34-2.96,2.68-3.67,4.01-.7,1.33-.64,2.53,.2,3.62Z"/><path class="cls-3" d="M335.67,121.98c-2.05,0-3.74-.83-5.01-2.48-1.52-2.01-1.89-4.18-1.12-6.44,.75-2.2,2.52-4.38,5.25-6.49,2.73-2.1,5.29-3.26,7.61-3.42,2.4-.17,4.37,.73,5.87,2.68,1.79,2.43,2,5.01,.62,7.66l-.21,.4-3.82-1.77,.23-.44c.64-1.21,.59-2.29-.16-3.3-.71-.93-1.69-1.23-2.97-.94-1.39,.32-2.95,1.14-4.63,2.44-1.68,1.3-2.87,2.59-3.54,3.85-.61,1.16-.56,2.18,.15,3.11,.87,1.07,2.14,1.17,3.87,.29l-1.79-2.32,3.48-2.68,4.57,5.93-1.08,.83c-2.61,1.98-4.99,3.02-7.1,3.08-.08,0-.16,0-.24,0Zm7.32-17.92c-.17,0-.34,0-.51,.02-2.13,.15-4.53,1.24-7.11,3.23-2.59,1.99-4.25,4.03-4.94,6.05-.68,1.98-.36,3.81,.98,5.58,1.14,1.48,2.6,2.16,4.47,2.11,1.91-.06,4.11-1.03,6.56-2.89l.34-.26-3.43-4.45-2,1.54,1.88,2.44-.46,.27c-2.41,1.39-4.27,1.31-5.54-.26h0c-.95-1.24-1.03-2.63-.24-4.13,.73-1.38,2.01-2.78,3.79-4.16,1.79-1.38,3.47-2.25,4.99-2.61,1.65-.38,2.97,.05,3.92,1.28,.89,1.19,1.04,2.48,.45,3.86l2.12,.98c1-2.2,.75-4.25-.73-6.27-1.2-1.56-2.69-2.32-4.55-2.32Z"/></g><g><path class="cls-3" d="M344.09,138.1l-6.37-10.37,17.6-10.81,6.05,9.85-2.78,1.71-4.43-7.2-4.33,2.66,2.99,4.86-2.84,1.74-2.99-4.86-4.81,2.95,4.75,7.73-2.84,1.74Z"/><path class="cls-3" d="M343.94,138.74l-6.86-11.17,18.4-11.3,6.54,10.64-3.58,2.2-4.43-7.2-3.54,2.17,2.99,4.86-3.63,2.23-2.99-4.86-4.01,2.46,4.75,7.73-3.63,2.23Zm-5.58-10.86l5.88,9.57,2.04-1.25-4.75-7.73,5.6-3.44,2.99,4.86,2.04-1.25-2.99-4.86,5.13-3.15,4.43,7.2,1.99-1.22-5.56-9.05-16.81,10.32Z"/></g><g><path class="cls-3" d="M358.97,164.17c.5,1.35,1.53,2.1,3.08,2.23l-.46,3.23c-2.8-.27-4.7-1.73-5.7-4.38-.77-2.17-.47-4.15,.88-5.94,1.35-1.79,3.62-3.25,6.8-4.37,3.18-1.12,5.86-1.41,8.03-.86,2.18,.55,3.65,1.9,4.41,4.07,.88,2.69,.32,5.02-1.69,6.99l-2.39-2.23c1.12-1.08,1.45-2.3,.99-3.67-.45-1.29-1.43-2-2.93-2.13-1.5-.13-3.28,.17-5.36,.9-2.07,.73-3.65,1.62-4.73,2.66-1.08,1.04-1.4,2.21-.94,3.5Z"/><path class="cls-3" d="M361.99,170.14l-.44-.04c-2.98-.29-5.03-1.87-6.09-4.68-.82-2.33-.5-4.47,.94-6.39,1.4-1.86,3.76-3.38,7.01-4.53,3.25-1.15,6.04-1.44,8.3-.88,2.33,.58,3.92,2.06,4.74,4.37,.94,2.87,.34,5.38-1.8,7.48l-.32,.31-3.08-2.87,.36-.34c.99-.95,1.28-1.99,.87-3.18-.39-1.1-1.22-1.7-2.53-1.82-1.42-.13-3.16,.17-5.16,.87-2,.71-3.54,1.57-4.56,2.56-.95,.91-1.22,1.89-.83,3,.44,1.18,1.31,1.81,2.68,1.93l.49,.04-.59,4.16Zm7.32-15.86c-1.63,0-3.5,.37-5.59,1.1-3.08,1.09-5.29,2.5-6.58,4.21-1.26,1.67-1.53,3.47-.81,5.5,.88,2.34,2.48,3.66,4.86,4.02l.33-2.31c-1.47-.26-2.48-1.09-2.99-2.47h0c-.52-1.48-.16-2.82,1.06-3.99,1.12-1.09,2.77-2.02,4.9-2.77,2.13-.75,4-1.06,5.55-.92,1.69,.15,2.81,.97,3.33,2.44,.47,1.4,.21,2.68-.77,3.81l1.71,1.59c1.63-1.78,2.04-3.8,1.26-6.19-.71-2.02-2.05-3.26-4.08-3.77-.67-.17-1.4-.25-2.18-.25Z"/></g><g><path class="cls-3" d="M362.27,186.91l-2.83-11.84,20.09-4.8,.72,3.02-16.85,4.03,2.11,8.82-3.24,.77Z"/><path class="cls-3" d="M361.93,187.48l-3.05-12.75,21-5.02,.94,3.92-16.85,4.03,2.11,8.82-4.15,.99Zm-1.92-12.06l2.61,10.93,2.33-.56-2.11-8.82,16.85-4.03-.5-2.11-19.18,4.59Z"/></g><g><path class="cls-3" d="M372.14,203.45c-1.61,.21-3.07,.09-4.37-.35-1.08-.35-2.01-1.02-2.79-2-.78-.98-1.25-2.07-1.4-3.27-.16-1.2,.02-2.37,.52-3.52,.5-1.15,1.23-2.04,2.19-2.67,1.15-.74,2.53-1.21,4.14-1.42l13.15-1.7,.4,3.08-13.15,1.7c-1.32,.17-2.35,.63-3.07,1.39-.72,.75-1.01,1.66-.88,2.72,.14,1.06,.65,1.87,1.54,2.41,.89,.54,2,.73,3.32,.56l13.15-1.7,.4,3.08-13.15,1.7Z"/><path class="cls-3" d="M370.64,204.01c-1.08,0-2.09-.16-3.02-.47-1.16-.38-2.17-1.1-3.01-2.15-.83-1.04-1.34-2.22-1.5-3.5-.17-1.28,.02-2.55,.56-3.77,.54-1.22,1.33-2.19,2.36-2.87,1.21-.78,2.66-1.28,4.34-1.5l13.61-1.76,.52,4-13.61,1.76c-1.21,.16-2.15,.58-2.79,1.25-.62,.65-.87,1.42-.75,2.34,.12,.92,.55,1.6,1.32,2.07,.79,.48,1.81,.65,3.02,.49l13.61-1.76,.52,4-13.61,1.76c-.53,.07-1.05,.1-1.56,.1Zm12.53-14.98l-12.68,1.64c-1.53,.2-2.86,.65-3.94,1.35-.87,.58-1.55,1.41-2.01,2.47-.47,1.06-.63,2.16-.49,3.27,.14,1.11,.58,2.13,1.31,3.04,.72,.9,1.58,1.52,2.57,1.84,1.23,.42,2.63,.53,4.16,.33l12.68-1.64-.28-2.15-12.68,1.64c-1.43,.19-2.65-.02-3.63-.62-1.01-.62-1.6-1.54-1.76-2.75-.16-1.21,.18-2.25,1-3.11,.79-.83,1.92-1.34,3.35-1.53l12.68-1.64-.28-2.15Z"/></g><g><path class="cls-3" d="M371.53,221.9c-1.67,.03-3.12-.41-4.36-1.34-1.24-.92-1.88-2.29-1.91-4.1l-.14-7.72,20.65-.39,.14,7.43c.03,1.54-.45,2.84-1.42,3.89-.98,1.05-2.36,1.6-4.15,1.63-2.08,.02-3.53-.59-4.35-1.82-.9,1.58-2.38,2.39-4.46,2.42Zm-.15-3.19c.76-.03,1.4-.26,1.91-.68,.52-.42,.78-.96,.79-1.62l-.09-4.77-5.55,.1,.09,4.65c.01,.72,.31,1.29,.9,1.71,.58,.42,1.23,.62,1.95,.61Zm8.66-.4c.76-.01,1.37-.22,1.84-.61,.47-.39,.69-.94,.68-1.67l-.08-4.53-5.03,.09,.08,4.5c.01,.66,.28,1.19,.82,1.59,.53,.4,1.09,.6,1.69,.61Z"/><path class="cls-3" d="M371.37,222.37c-1.69,0-3.2-.48-4.48-1.43-1.36-1.01-2.06-2.51-2.1-4.47l-.15-8.19,21.59-.4,.15,7.9c.03,1.66-.49,3.08-1.55,4.22-1.06,1.14-2.57,1.74-4.48,1.78-1.91,.02-3.37-.48-4.32-1.49-1,1.35-2.51,2.06-4.49,2.09h0c-.06,0-.11,0-.17,0Zm-5.78-13.18l.14,7.26c.03,1.68,.59,2.9,1.72,3.74,1.15,.86,2.52,1.28,4.07,1.25h0c1.92-.04,3.24-.75,4.06-2.19l.37-.66,.42,.63c.74,1.1,2.03,1.63,3.96,1.61,1.64-.03,2.93-.53,3.81-1.48,.9-.97,1.32-2.13,1.3-3.56l-.13-6.96-19.72,.37Zm5.72,9.99c-.79,0-1.52-.23-2.16-.7-.71-.51-1.07-1.21-1.09-2.08l-.1-5.12,6.48-.12,.1,5.24c-.01,.82-.33,1.49-.96,2-.59,.48-1.33,.75-2.19,.78h-.01s-.05,0-.08,0Zm-2.39-6.98l.08,4.18c.01,.57,.24,1.01,.7,1.34,.5,.36,1.04,.53,1.67,.52,.66-.03,1.2-.22,1.64-.58,.41-.33,.61-.74,.61-1.27l-.08-4.29-4.61,.09Zm11.12,6.58h0c-.69,0-1.36-.25-1.97-.71-.65-.49-.99-1.15-1-1.96l-.09-4.97,5.96-.11,.09,5c.02,.87-.27,1.55-.85,2.03-.55,.46-1.26,.7-2.13,.71h0Zm-2.12-6.72l.08,4.04c0,.52,.22,.92,.63,1.23,.45,.34,.91,.51,1.41,.52,.65-.01,1.16-.18,1.54-.5,.35-.3,.52-.72,.51-1.3l-.08-4.07-4.09,.08Z"/></g></g><g><path class="cls-5" d="M48.11,253.58l5.56-5.56,5.56,5.56-5.56,5.56-5.56-5.56Z"/><path class="cls-3" d="M53.67,259.48l-5.89-5.89,5.89-5.89,5.89,5.89-5.89,5.89Zm-5.23-5.89l5.23,5.23,5.23-5.23-5.23-5.23-5.23,5.23Z"/></g><g><path class="cls-7" d="M186.89,270.13c4.41-.14,8.8-.67,13.2-1.04,.4-.03,.79-.18,1.19-.59-17.7-3.59-35.55-5.14-53.46-6.17-17.09-.98-34.15-1.44-51.21,.75,1.59,3.59,3.33,7.09,5.23,10.49,9.08-1.34,18.23-1.63,27.39-1.86,19.22-.48,38.44-.99,57.66-1.59Z"/><path d="M101.72,273.83l-.08-.14c-1.91-3.41-3.67-6.95-5.24-10.51l-.13-.29,.31-.04c17.47-2.25,34.95-1.69,51.25-.75,15.93,.92,34.75,2.36,53.5,6.17l.42,.09-.3,.31c-.4,.41-.82,.62-1.34,.66-1.3,.11-2.61,.23-3.91,.36-3.05,.29-6.2,.59-9.31,.68h0c-16.96,.53-35.28,1.03-57.66,1.59-9.75,.24-18.55,.55-27.36,1.85l-.16,.02Zm-4.77-10.55c1.51,3.4,3.2,6.78,5.02,10.04,8.79-1.29,17.55-1.59,27.26-1.83,22.37-.56,40.69-1.06,57.65-1.59h0c3.09-.1,6.24-.39,9.28-.68,1.3-.12,2.61-.25,3.91-.36,.25-.02,.48-.09,.68-.23-18.56-3.73-37.17-5.16-52.96-6.07-16.18-.93-33.53-1.48-50.85,.71Z"/></g><g><path class="cls-7" d="M202.42,266.53c-1.51-.61-3-1.28-4.53-1.81-12.19-4.24-24.57-7.6-37.17-9.81-5.34-.94-10.67-2.25-16.05-2.65-7.2-.54-14.47-.82-21.66-.35-6.78,.44-13.51,1.98-20.26,3.02-.41,.06-.82,.07-1.36-.48,1.97-.63,3.91-1.43,5.91-1.87,12.56-2.74,25.26-3.02,37.86-1.26,11.41,1.59,22.72,4.24,34,6.86,7.45,1.73,14.75,4.23,22.13,6.37,.25,.07,.53,0,1.33,0-.87-.84-1.34-1.44-1.91-1.82-11.5-7.64-23.53-13.89-36.54-17.33-5.44-1.44-10.97-2.73-16.51-3.29-6.9-.69-13.87-.98-20.79-.65-6.17,.29-12.33,1.53-17.97,4.85-.03,.04-.06,.07-.09,.11,0,0-.04-.04-.03-.04,0,0,.03,.04,.03,.03-.02,0-.04-.01-.05-.02-.64,.27-1.3,.54-2.24,.92,0-2.74-.19-5.3,.03-7.81,1.32-15.29,2.74-30.56,4.12-45.84,1.06-11.73,2.09-23.46,3.18-35.18,.44-4.78,0-5.23-3.97-3.64-.27,.11-.57,.11-.86,.14-.04,.02-.09,.04-.13,.07,0,0,0,0,0,0-.02,.08-.04,.16-.06,.25-.22,4.43-.32,8.87-.7,13.29-.77,9.15-1.72,18.29-2.55,27.43-1.42,15.62-2.8,31.24-4.23,46.85-.32,3.44-.78,6.86-1.18,10.28-.24-.03-.47-.06-.71-.09,2.74-30.04,5.47-60.09,8.21-90.13-.24-.15-.47-.3-.71-.46-1.54,2.09-3.07,4.17-4.61,6.26-.14-.12-.29-.24-.43-.35,1.35-2.08,2.42-4.56,4.14-6.12,1.79-1.63,2.42-3.44,2.53-5.79,.02-.39,.14-.77,.23-1.16,0-.1,0-.2,.01-.3,.06,0,.11-.01,.17-.02,1.36-.71,2.76-1.34,4.05-2.18,.55-.36,1.09-1.15,1.21-1.85,1.03-6.02,1.18-6.18,6.67-7.48,.55-.13,1.22-1.04,1.35-1.72,.41-2.06,.71-4.16,.82-6.27,.13-2.57,1.57-3.26,3.39-3.84,9.67-3.09,19.55-3.52,29.46-2.78,17,1.28,32.25,7.82,44.83,21.25,3.45,3.68,6.14,8.29,9.18,12.48,.31,.42,.61,.85,.81,1.12,3.68-3.75,7.14-7.64,10.92-11.05,10.01-9.03,21.27-15.43,33.57-19.15,13.61-4.13,27.42-4.49,41.3-1.71,1.77,.36,2.68,1.05,2.69,3.4,0,3.74,.48,7.47,.63,11.22,.07,1.6,.66,1.73,1.89,1.72,2.34-.02,4.68,.3,7.02,.48-.03,.33-.05,.66-.08,.98-2.06-.27-4.14-.47-6.19-.83-1.95-.34-2.46,.47-2.31,2.68,.72,10.8,1.32,21.61,1.51,32.48-.26-2.6-.59-5.2-.75-7.81-.84-13.32-1.69-26.65-2.4-39.98-.11-2.07-.71-2.73-2.42-3.09-12.06-2.57-24.11-2.52-36.09,.31-12.05,2.85-23.27,8.22-33.19,16.59-5.02,4.24-9.57,9.22-14.3,13.91-.67,.66-1.17,1.56-1.56,2.1-2.82-4-5.44-8.09-8.4-11.85-7.41-9.41-16.59-15.84-27.03-19.79-15.18-5.74-30.62-5.98-46.16-2.07-.42,.11-.84,.21-1.26,.29-4.34,.89-4.26,.89-4.65,5.79-1.15,14.44-2.4,28.87-3.54,43.31-.84,10.55-1.53,21.11-2.36,31.66-.42,5.27-1.01,10.52-1.54,15.78-.02,.2-.19,.38-.75,.49,.4-5.64,.75-11.28,1.21-16.92,1.57-19.47,3.18-38.93,4.78-58.4,.21-2.51,.43-5.03,.69-7.53,.15-1.42-.33-1.88-1.56-1.83-3.39,.16-4.68,1.58-5.02,5.5-1.25,14.43-2.56,28.86-3.81,43.29-1.33,15.32-2.61,30.64-3.94,45.96-.17,2.02-.48,4.02-.74,6.18,.68,.21,1.25,.39,1.82,.57,0,0,.02,0,.03-.01,.04-.02,.08-.05,.13-.07,.52-.61,.98-1.38,1.61-1.71,6.12-3.24,12.66-4.16,19.32-4.4,20.34-.73,39.78,3.73,58.28,13.41,7.06,3.69,13.9,7.86,19.97,13.51,.28,.26,.71,.3,1.07,.45,.14-.17,.28-.33,.41-.5-1.32-1.8-2.53-3.71-3.97-5.38-9.78-11.4-21.48-19.16-34.81-23.73-3.68-1.26-7.36-2.69-11.13-3.36-6.4-1.13-12.87-1.83-19.32-2.51-6.13-.64-12.18,.36-18.2,1.63-.54,.12-1.11,.11-1.66,.15-.04-.2-.07-.4-.11-.59,2.22-.57,4.42-1.3,6.67-1.67,8.6-1.39,17.17-.95,25.75,.45,9.14,1.48,18,4.01,26.51,8.12,11.92,5.76,22.29,13.97,30.59,25.44,.25,.35,.59,.62,1.03,1.08-.39-32.91-.78-65.56-1.17-98.22,.26,0,.52-.01,.77-.02,.62,31.99,1.23,63.97,1.85,95.96,.22,.06,.43,.12,.65,.19,1.1-1.42,2.22-2.82,3.31-4.25,5.97-7.74,12.69-14.43,20.45-19.76,7.36-5.05,15.31-8.2,23.72-9.88,14.18-2.83,28.36-2.16,42.51,.41,2.77,.5,2.88,.45,2.59-2.68-1.05-11.17-2.17-22.32-3.2-33.49-.25-2.74-.25-5.5,.01-8.29,.46,4.28,.96,8.55,1.38,12.83,.41,4.26,.73,8.52,1.09,12.79,.51,6.13,1.01,12.27,1.55,18.4,.14,1.61-.32,2.23-1.8,2.05-5.86-.71-11.72-1.6-17.59-1.92-14.26-.79-28.39-.22-41.89,6.13-8.97,4.22-16.71,10.42-23.39,18.42-2.6,3.11-5.18,6.26-7.76,9.4-.45,.56-.83,1.19-1.44,2.07,2,.56,3.53,.66,4.92-.66-.01-.02-.02-.05-.03-.07l.05,.06s-.05-.06-.04-.05c.07-.02,.13-.04,.2-.06,7.41-5.84,15.79-9.3,24.21-12.58,19.81-7.7,40.19-9.35,60.89-7.15,4.65,.5,9.28,1.34,14.35,2.08-2.74-32.15-5.45-64.06-8.17-95.97,.28-.03,.56-.06,.84-.09,2.93,32.41,5.12,64.91,8.57,97.46-2.82-.48-5.93-1.25-9.07-1.5-8.15-.64-16.3-1.26-24.46-1.45-5.07-.12-10.19,.26-15.23,.97-6.12,.86-12.2,2.12-18.24,3.55-10.74,2.55-20.59,7.84-30.32,13.45-1.04,.6-2.23,.84-3.37,1.21-.05,.04-.1,.08-.15,.12,0,0,0,0-.01,.01,.38,.73,.64,1.67,1.2,2.1,1.58,1.23,3.25,2.33,4.96,3.31,.71,.41,1.61,.57,2.42,.56,12.31-.27,24.63-.97,36.94-.8,19.83,.27,39.66,.97,59.49,1.55,2.86-5.19,5.36-10.61,7.48-16.21-2.27-22.11-4.53-44.04-6.79-65.96,.23-.03,.46-.06,.69-.09,.83,7.92,1.62,15.85,2.5,23.77,1.11,10,2.37,19.99,3.43,30,.36,3.35,.67,6.7,.98,10.05,.98-2.75,1.87-5.54,2.66-8.37-1.31-14.26-2.62-28.41-3.92-42.57,.22-.03,.43-.06,.65-.08,.49,4.2,1.05,8.39,1.46,12.61,.86,9.07,1.72,18.14,2.57,27.21,2.52-9.94,3.87-20.36,3.87-31.08,0-69.63-56.45-126.09-126.09-126.09s-126.09,56.45-126.09,126.09c0,10.45,1.28,20.6,3.67,30.3,0,0,0,0,0,0,.26,.03,.52,.07,.77,.1-.07,.69-.15,1.37-.22,2.06,1.22,4.6,2.69,9.1,4.4,13.47,1.05-10.31,1.84-20.63,1.94-31-.18-.02-.37-.03-.55-.05-.21,2.5-.42,5-.64,7.5-.2-.02-.4-.04-.6-.06,.21-3.56,.46-7.12,.64-10.68,.28-5.7,.42-11.4,.78-17.09,.44-6.84,1.07-13.66,1.57-20.49,.13-1.77,.09-3.56,.12-5.35,.03-1.69,.32-3.14,1.75-4.15,.63-.45,.96-1.46,1.65-2.58-1.78,.23-3.12,.4-4.45,.57-.03-.25-.06-.51-.08-.76,1.66-.42,3.32-.83,4.85-1.21-2.12,28.95-4.24,57.93-6.36,86.91,.32,.78,.64,1.56,.98,2.34,35.51-2.7,70.88-.64,106.29,4.54Zm120.95-7.59c-3.6-.61-6.92-1.33-10.27-1.72-10.83-1.26-21.66-2.6-32.51-3.49-4.68-.38-9.44,0-14.12,.47-10.19,1.04-20.25,2.95-29.87,7.18-4.55,2-9.11,4-13.66,6.01,5.61-4.08,11.71-6.94,18.08-9.02,16.77-5.48,33.89-6.75,51.19-4.91,7.43,.79,14.84,1.99,22.25,3,2.46,.34,4.92,.68,7.58,1.06v-8.88c.09-.01,.17-.03,.26-.04,.35,3.34,.69,6.67,1.08,10.35Zm-.45-71.22c-.24-3.2-.48-6.41-.72-9.61,.13-.04,.27-.08,.4-.12,.27,3.23,.53,6.46,.8,9.68-.16,.02-.32,.04-.48,.05Zm4.37-12.56c.92,8.82,1.83,17.64,2.75,26.46-.23,.03-.46,.06-.68,.09-1.02-8.8-2.04-17.61-3.07-26.41,.34-.05,.67-.09,1.01-.14Zm-7.6-8.97c.23,.29,.57,.53,.66,.87,.56,1.95,1.01,3.95,1.63,5.87,.14,.43,.8,.75,1.28,.89,.64,.19,1.32,.16,1.98,.64-1.16,.19-2.32,.37-3.73,.6-.7-2.81-1.43-5.73-2.17-8.65l.33-.22Zm-4.74-8.48c.46,5.51,.92,11.01,1.37,16.52,1.08,13.05,2.16,26.09,3.22,39.14,.83,10.3,1.63,20.6,2.43,30.9,.05,.63-.05,1.27-.41,1.93-2.48-29.47-4.97-58.94-7.45-88.4,.28-.03,.56-.05,.84-.08Zm-168.12-35.61c.06,0,.11-.01,.17-.02-.04,.02-.09,.04-.13,.07,0,0,0,0,0,0-.02,.08-.04,.16-.06,.25,0-.1,0-.2,.01-.3Zm-52.64,121.74v-7.86c1.05,.92,1.07,4.62,0,7.86Zm-3.44-4.52c-.68-8.86,3.67-64.02,5.21-65.55-1.76,22.2-3.48,43.88-5.21,65.55Z"/><path d="M322.62,273.15h-.14c-4.38-.13-8.77-.27-13.15-.4-15.19-.46-30.89-.94-46.34-1.15-8.2-.11-16.54,.17-24.6,.44-4.04,.14-8.22,.28-12.33,.36-.95,.02-1.85-.19-2.55-.59-1.88-1.08-3.51-2.17-4.99-3.33-.44-.35-.7-.94-.96-1.52-.06-.13-.11-.26-.17-.39-1.4,1.17-2.93,1.07-4.91,.51l-.32-.09,.19-.27c.21-.3,.39-.57,.55-.81,.32-.48,.59-.89,.9-1.27,2.32-2.84,5.03-6.14,7.76-9.4,6.79-8.13,14.69-14.35,23.47-18.48,14.21-6.69,29.21-6.87,42-6.16,4.43,.25,8.92,.82,13.27,1.38,1.45,.19,2.9,.37,4.34,.55,.61,.07,1.02,0,1.25-.22,.27-.26,.36-.76,.29-1.58-.37-4.25-.73-8.5-1.08-12.76-.16-1.88-.31-3.76-.47-5.65-.1-1.22-.2-2.43-.3-3.65-.24-2.99-.5-6.09-.79-9.13-.29-2.98-.62-6-.95-8.92-.05-.41-.09-.82-.14-1.23-.06,1.87-.01,3.73,.16,5.56,.59,6.41,1.22,12.93,1.83,19.24,.46,4.75,.92,9.5,1.37,14.26,.15,1.63,.21,2.5-.24,2.91-.43,.39-1.15,.28-2.62,.02-15.67-2.84-29.55-2.98-42.42-.41-8.68,1.73-16.63,5.05-23.63,9.85-7.44,5.1-14.11,11.55-20.4,19.71-.75,.97-1.5,1.93-2.26,2.89l-1.16,1.48-.96-.28v-.17s-1.84-95.72-1.84-95.72h-.31s1.18,98.59,1.18,98.59l-.41-.42c-.15-.15-.29-.29-.41-.41-.25-.24-.46-.45-.64-.69-7.98-11.01-17.95-19.31-30.5-25.36-8-3.86-16.65-6.51-26.45-8.1-9.54-1.55-17.94-1.7-25.68-.45-1.53,.25-3.06,.68-4.55,1.09-.63,.18-1.26,.35-1.89,.52l.03,.17c.11,0,.22-.01,.33-.02,.38-.02,.74-.04,1.1-.12,5.82-1.24,12.05-2.29,18.27-1.64,6.91,.72,13.13,1.41,19.34,2.51,3.13,.56,6.24,1.64,9.25,2.7,.64,.22,1.28,.45,1.92,.67,13.62,4.67,25.37,12.68,34.91,23.8,.99,1.15,1.88,2.43,2.75,3.67,.41,.58,.81,1.16,1.23,1.72l.11,.15-.64,.77-.16-.06c-.11-.04-.22-.08-.34-.11-.28-.08-.58-.17-.81-.38-6.64-6.18-14.13-10.45-19.92-13.47-18.37-9.61-37.94-14.11-58.16-13.38-5.47,.2-12.61,.87-19.22,4.37-.29,.15-.54,.41-.79,.71,4.77-2.57,10.36-3.97,17.02-4.29,6.46-.31,13.47-.09,20.82,.65,5.79,.58,11.62,1.99,16.55,3.3,11.7,3.09,23.67,8.77,36.61,17.36,.39,.26,.73,.61,1.16,1.05,.23,.24,.48,.5,.79,.79l.42,.4h-.58c-.3,0-.53,0-.71,.02-.31,.01-.49,.02-.69-.04-2.34-.68-4.71-1.41-7-2.11-4.93-1.51-10.04-3.08-15.11-4.26l-.68-.16c-10.88-2.53-22.13-5.14-33.29-6.7-12.97-1.81-25.68-1.39-37.78,1.26-1.35,.3-2.71,.77-4.02,1.23-.49,.17-.98,.34-1.47,.5,.32,.21,.58,.2,.86,.15,2.08-.32,4.2-.7,6.24-1.06,4.59-.82,9.34-1.66,14.04-1.96,6.22-.4,13.11-.29,21.69,.35,3.83,.29,7.68,1.04,11.41,1.77,1.53,.3,3.11,.61,4.66,.88,12.01,2.1,24.53,5.41,37.21,9.82,1.05,.37,2.1,.8,3.11,1.22,.48,.2,.95,.4,1.43,.59l1.83,.73-1.95-.29c-38.19-5.59-72.94-7.08-106.24-4.54h-.17s-.07-.14-.07-.14c-.33-.78-.66-1.56-.98-2.34l-.02-.05v-.05s6.22-84.93,6.22-84.93c-.12,.21-.23,.42-.34,.63-.35,.67-.66,1.25-1.12,1.58-1.33,.93-1.62,2.26-1.65,3.96,0,.53-.01,1.07-.02,1.6,0,1.23-.02,2.51-.11,3.76-.2,2.74-.43,5.53-.65,8.22-.33,4.02-.66,8.17-.93,12.27-.23,3.51-.37,7.09-.5,10.56-.09,2.18-.17,4.36-.28,6.53-.12,2.46-.28,4.96-.43,7.38-.06,1.03-.13,2.06-.19,3.08h.14s.64-7.48,.64-7.48l1,.1v.21c-.09,9.05-.71,18.9-1.94,31.02l-.1,.96-.35-.9c-1.71-4.37-3.19-8.91-4.41-13.5v-.04s.19-1.87,.19-1.87l-.29-.04v1.69l-.46-1.9c-2.44-9.9-3.68-20.11-3.68-30.36,0-33.74,13.14-65.46,37-89.32,23.86-23.86,55.58-37,89.32-37s65.46,13.14,89.32,37c23.86,23.86,37,55.58,37,89.32,0,10.53-1.3,21.01-3.87,31.14l-.33,1.31-.37-3.97c-.77-8.2-1.54-16.39-2.32-24.58-.27-2.88-.63-5.8-.98-8.63-.15-1.25-.3-2.49-.45-3.74l-.19,.02,3.91,42.38v.04c-.79,2.79-1.68,5.62-2.67,8.39l-.36,1-.1-1.06c-.27-3-.61-6.54-.98-10.05-.61-5.73-1.29-11.54-1.95-17.16-.49-4.2-1-8.55-1.48-12.83-.61-5.48-1.19-11.06-1.74-16.45-.24-2.36-.49-4.72-.74-7.08l-.23,.03,6.77,65.79-.02,.05c-2.1,5.57-4.62,11.03-7.49,16.24l-.07,.13Zm-63.5-2.05c1.29,0,2.58,0,3.87,.03,15.45,.21,31.16,.69,46.34,1.15,4.34,.13,8.67,.26,13.01,.39,2.82-5.13,5.3-10.52,7.38-16l-6.81-66.14,1.16-.15,.02,.24c.26,2.44,.51,4.88,.76,7.32,.56,5.39,1.13,10.97,1.74,16.45,.48,4.28,.99,8.62,1.48,12.83,.66,5.62,1.34,11.44,1.95,17.17,.33,3.1,.63,6.23,.88,8.99,.84-2.42,1.61-4.88,2.29-7.31l-3.94-42.75,1.11-.14,.03,.23c.15,1.33,.32,2.65,.48,3.97,.35,2.83,.7,5.75,.98,8.64,.78,8.19,1.55,16.39,2.32,24.59l.12,1.25c2.34-9.68,3.53-19.66,3.53-29.69,0-33.62-13.09-65.22-36.86-88.99-23.77-23.77-55.37-36.86-88.99-36.86s-65.22,13.09-88.99,36.86c-23.77,23.77-36.86,55.37-36.86,88.99,0,10.15,1.22,20.27,3.63,30.09l.84,.11-.24,2.24c1.13,4.24,2.48,8.44,4.03,12.5,1.16-11.57,1.74-21.07,1.84-29.79h-.1s-.64,7.49-.64,7.49l-1.06-.11v-.22c.08-1.1,.15-2.21,.22-3.31,.15-2.41,.31-4.91,.43-7.37,.11-2.17,.19-4.35,.28-6.53,.14-3.47,.28-7.05,.5-10.57,.26-4.1,.6-8.25,.93-12.27,.22-2.69,.45-5.48,.65-8.22,.09-1.24,.1-2.5,.11-3.73,0-.54,0-1.07,.02-1.6,.03-1.6,.27-3.22,1.85-4.33,.37-.26,.64-.77,.98-1.42,.11-.21,.23-.44,.37-.68l-4.21,.54-.13-1.2,5.36-1.34-3.01,41.16-3.37,46.02c.29,.71,.59,1.42,.89,2.13,32.74-2.48,66.88-1.08,104.31,4.29-.91-.38-1.85-.76-2.78-1.09-12.65-4.4-25.15-7.7-37.14-9.8-1.56-.27-3.14-.58-4.67-.88-3.72-.73-7.56-1.48-11.35-1.76-8.56-.64-15.43-.75-21.63-.35-4.68,.3-9.41,1.14-13.99,1.96-2.05,.36-4.16,.74-6.25,1.06-.43,.07-.94,.09-1.57-.54l-.27-.27,.36-.12c.62-.2,1.24-.41,1.86-.63,1.32-.46,2.69-.94,4.07-1.24,12.15-2.66,24.92-3.08,37.95-1.26,11.19,1.56,22.45,4.18,33.33,6.7l.68,.16c5.09,1.18,10.2,2.75,15.14,4.27,2.29,.7,4.66,1.43,7,2.11,.12,.03,.27,.03,.54,.02,.05,0,.11,0,.17,0-.15-.15-.28-.29-.4-.41-.41-.42-.73-.75-1.08-.99-12.89-8.56-24.82-14.22-36.47-17.3-4.92-1.3-10.72-2.7-16.48-3.28-7.33-.74-14.31-.95-20.75-.65-7.03,.33-12.84,1.89-17.74,4.75l.37,.42-.62-.18-.08,.09-.09-.1c-.6,.26-1.23,.51-2.12,.87l-.32,.13v-.35c0-.88-.02-1.74-.04-2.59-.04-1.82-.08-3.53,.07-5.25,.97-11.21,2-22.59,3.01-33.6,.37-4.08,.74-8.16,1.11-12.24,.33-3.7,.67-7.41,1-11.11,.71-7.89,1.44-16.05,2.18-24.07,.21-2.27,.23-3.66-.31-4.06-.49-.37-1.64-.02-3.34,.65-.25,.1-.52,.12-.77,.14h-.1s-.02,.09-.03,.13c-.06,1.29-.12,2.59-.17,3.9-.13,3.08-.26,6.26-.52,9.38-.47,5.56-1.01,11.21-1.54,16.68-.34,3.59-.69,7.17-1.01,10.76-.65,7.08-1.28,14.16-1.92,21.25-.77,8.53-1.53,17.07-2.31,25.6-.22,2.36-.51,4.75-.79,7.06-.13,1.08-.26,2.15-.39,3.23l-.03,.23-1.17-.15,.02-.22,8.19-89.99-.4-.26-4.63,6.28-.78-.64,.11-.18c.41-.63,.8-1.31,1.18-1.97,.87-1.52,1.78-3.09,3-4.2,1.62-1.47,2.33-3.11,2.46-5.63,.02-.34,.1-.67,.18-.99l.06-.22v-.09s0-.07,0-.07l-.1-.12,.11-.05v-.12s.2-.03,.2-.03c.04,0,.09-.01,.14-.02h0c.34-.18,.69-.35,1.04-.53,.99-.5,2.01-1.01,2.95-1.62,.51-.33,1.01-1.09,1.11-1.69,1.05-6.12,1.24-6.34,6.85-7.67,.43-.1,1.06-.92,1.18-1.54,.45-2.27,.72-4.31,.81-6.23,.14-2.74,1.76-3.48,3.55-4.05,8.66-2.77,18.05-3.65,29.55-2.79,17.85,1.34,32.99,8.52,44.98,21.32,2.38,2.54,4.43,5.56,6.41,8.48,.9,1.33,1.84,2.71,2.79,4.02,.22,.31,.44,.61,.62,.86l.02,.03c1.09-1.12,2.18-2.26,3.23-3.36,2.41-2.53,4.91-5.15,7.5-7.5,9.97-9,21.3-15.46,33.66-19.2,13.2-4,27.14-4.58,41.42-1.71,1.77,.35,2.87,1.09,2.87,3.63,0,2.21,.18,4.46,.34,6.64,.11,1.5,.23,3.04,.29,4.57,.06,1.45,.52,1.51,1.66,1.5,1.66-.02,3.35,.14,4.98,.3,.68,.06,1.37,.13,2.06,.18l.23,.02-.12,1.46-.24-.03c-.63-.08-1.25-.16-1.88-.23-1.42-.17-2.88-.35-4.32-.6-.8-.14-1.32-.08-1.63,.2-.37,.33-.5,1.02-.41,2.24,.59,8.84,1.3,20.51,1.51,32.49l-.47,.03c-.08-.82-.17-1.64-.26-2.46-.19-1.75-.38-3.57-.5-5.36l-.13-1.98c-.79-12.45-1.6-25.33-2.27-38-.1-1.91-.58-2.52-2.24-2.88-12.11-2.58-24.22-2.47-35.99,.31-12.44,2.94-23.57,8.51-33.09,16.54-3.6,3.04-7.01,6.51-10.31,9.88-1.3,1.32-2.64,2.69-3.98,4.02-.46,.45-.83,1.02-1.16,1.52-.14,.21-.26,.4-.38,.56l-.19,.26-.19-.27c-.88-1.25-1.76-2.54-2.61-3.78-1.85-2.7-3.76-5.49-5.78-8.06-7.09-9.01-16.16-15.64-26.93-19.71-14.39-5.44-29.87-6.13-46.02-2.06-.42,.11-.84,.21-1.27,.29q-4.09,.83-4.44,5.32l-.02,.26c-.56,7.09-1.16,14.3-1.74,21.28-.6,7.22-1.22,14.69-1.8,22.04-.42,5.26-.8,10.62-1.18,15.8-.38,5.2-.76,10.57-1.18,15.86-.3,3.85-.71,7.75-1.1,11.52-.15,1.42-.3,2.84-.44,4.27-.05,.46-.55,.62-.93,.69l-.3,.06,.02-.31c.13-1.78,.25-3.55,.37-5.33,.26-3.8,.53-7.73,.84-11.59,1.33-16.5,2.71-33.27,4.04-49.49l.73-8.91c.18-2.22,.41-4.85,.69-7.54,.07-.65,0-1.07-.22-1.3-.2-.21-.55-.29-1.1-.27-3.26,.15-4.47,1.49-4.8,5.28-.62,7.15-1.25,14.31-1.89,21.46-.64,7.28-1.29,14.55-1.92,21.83-.69,7.98-1.37,15.96-2.05,23.94-.63,7.34-1.25,14.69-1.89,22.03-.12,1.37-.3,2.72-.48,4.15-.08,.6-.16,1.22-.24,1.84,.55,.17,1.03,.32,1.51,.47l.08-.08,.02,.02c.12-.14,.23-.28,.34-.43,.38-.48,.76-.98,1.27-1.25,6.69-3.54,13.89-4.23,19.42-4.43,20.31-.73,39.95,3.79,58.39,13.43,5.81,3.04,13.34,7.33,20.02,13.55,.15,.14,.38,.21,.62,.28,.07,.02,.15,.04,.22,.07l.19-.24c-.38-.52-.75-1.05-1.12-1.59-.86-1.23-1.75-2.5-2.72-3.63-9.49-11.06-21.17-19.02-34.71-23.66-.64-.22-1.28-.44-1.92-.67-2.99-1.05-6.08-2.13-9.17-2.68-6.2-1.1-12.41-1.79-19.3-2.51-6.15-.65-12.35,.4-18.13,1.63-.39,.08-.79,.1-1.17,.13-.17,0-.35,.02-.52,.03l-.21,.02-.19-1.02,.21-.05c.7-.18,1.39-.37,2.09-.57,1.5-.42,3.05-.85,4.6-1.1,7.79-1.26,16.23-1.11,25.82,.45,9.84,1.6,18.54,4.26,26.58,8.14,12.62,6.09,22.66,14.44,30.68,25.51,.15,.21,.35,.4,.59,.63,0,0,.01,.01,.02,.02l-1.17-97.88,1.24-.03,1.85,96.02,.33,.09,.96-1.23c.75-.96,1.51-1.92,2.25-2.89,6.32-8.2,13.03-14.67,20.5-19.81,7.05-4.84,15.06-8.17,23.8-9.92,12.93-2.58,26.87-2.45,42.6,.41,1.21,.22,1.96,.34,2.22,.1,.28-.26,.22-1.13,.09-2.52-.45-4.75-.91-9.5-1.37-14.26-.61-6.3-1.24-12.82-1.83-19.24-.25-2.73-.25-5.53,.01-8.33l.22-2.31,.25,2.31c.14,1.3,.29,2.61,.43,3.91,.32,2.92,.66,5.95,.95,8.93,.29,3.04,.55,6.14,.79,9.14,.1,1.22,.2,2.43,.3,3.65,.16,1.88,.31,3.76,.47,5.65,.35,4.25,.71,8.5,1.08,12.75,.09,.98-.05,1.59-.43,1.96-.34,.33-.86,.44-1.63,.35-1.45-.17-2.9-.36-4.35-.55-4.33-.56-8.82-1.13-13.23-1.38-12.73-.71-27.66-.53-41.77,6.11-8.72,4.1-16.56,10.28-23.31,18.35-2.73,3.26-5.43,6.56-7.76,9.4-.29,.36-.56,.76-.87,1.23-.11,.17-.24,.35-.37,.55,1.72,.45,3.05,.48,4.25-.57l-.85-1.62,1.19,1.34h.01c7.35-5.78,15.66-9.25,24.24-12.59,18.57-7.22,38.52-9.56,61-7.16,3.16,.34,6.29,.83,9.59,1.35,1.46,.23,2.95,.46,4.48,.69l-8.16-95.9,1.3-.14,.02,.24c1.1,12.17,2.11,24.55,3.09,36.54,1.63,19.96,3.32,40.59,5.47,60.92l.03,.31-.3-.05c-.87-.15-1.74-.32-2.67-.5-2.07-.41-4.21-.82-6.38-.99-7.57-.59-16.14-1.26-24.45-1.45-4.75-.11-9.86,.21-15.19,.97-5.45,.77-11.41,1.93-18.22,3.55-10.94,2.6-20.95,8.06-30.26,13.43-.78,.45-1.65,.7-2.49,.95-.29,.09-.58,.17-.87,.26,.08,.16,.15,.33,.23,.51,.23,.52,.47,1.07,.82,1.34,1.47,1.15,3.08,2.22,4.94,3.29,.61,.35,1.45,.55,2.3,.53,4.11-.09,8.28-.23,12.32-.36,6.8-.23,13.81-.46,20.75-.46Zm27.1-25.43c-15.86,0-30.47,2.66-44.3,8.04-8.17,3.17-16.08,6.47-23.14,11.76,.72-.21,1.45-.45,2.1-.82,9.34-5.39,19.39-10.86,30.38-13.48,6.82-1.62,12.8-2.79,18.26-3.56,5.35-.76,10.49-1.08,15.27-.97,8.32,.19,16.91,.86,24.48,1.45,2.19,.17,4.35,.59,6.43,1,.82,.16,1.59,.31,2.36,.45-2.14-20.24-3.82-40.77-5.44-60.62-.97-11.9-1.98-24.21-3.07-36.29l-.38,.04,8.17,96.04-.29-.04c-1.63-.24-3.22-.49-4.78-.73-3.3-.52-6.42-1.01-9.57-1.35-5.65-.6-11.14-.91-16.49-.91Zm-186.51,7.21l.25,.03c.12-1,.24-2,.36-3,.28-2.31,.58-4.69,.79-7.04,.78-8.53,1.55-17.07,2.31-25.6,.64-7.08,1.27-14.17,1.92-21.25,.33-3.59,.67-7.17,1.02-10.76,.52-5.46,1.07-11.11,1.54-16.67,.26-3.11,.39-6.29,.52-9.36,0-.08,0-.16,0-.23-.4,1.36-1.12,2.45-2.21,3.45-1.16,1.06-2.05,2.6-2.91,4.09-.35,.6-.71,1.23-1.08,1.82l.08,.06,4.59-6.23,1.01,.65v.14s-8.2,89.91-8.2,89.91Zm7.02-6.85c0,.32,0,.64,.01,.96,.51-.21,.93-.38,1.33-.54-.38-.12-.77-.24-1.21-.38l-.13-.04Zm6.01-92.23c.34,0,.62,.08,.84,.24,.72,.54,.73,1.87,.49,4.47-.75,8.02-1.48,16.18-2.18,24.07-.33,3.7-.66,7.41-1,11.11-.37,4.08-.74,8.16-1.11,12.24-1,11.01-2.04,22.4-3.01,33.6-.15,1.69-.11,3.4-.07,5.2,0,.29,.01,.57,.02,.86,.08-.62,.16-1.22,.23-1.82,.19-1.42,.36-2.76,.48-4.13,.64-7.34,1.26-14.69,1.89-22.03,.68-7.98,1.36-15.96,2.05-23.94,.63-7.28,1.28-14.55,1.92-21.83,.63-7.15,1.27-14.3,1.89-21.46,.35-4.05,1.72-5.54,5.24-5.71,.7-.03,1.16,.1,1.46,.41,.32,.34,.43,.87,.34,1.67-.28,2.68-.51,5.31-.69,7.53l-.73,8.91c-1.33,16.22-2.71,32.99-4.04,49.49-.31,3.86-.58,7.79-.84,11.59-.11,1.67-.23,3.33-.35,5,.16-.06,.25-.13,.26-.2,.14-1.42,.29-2.85,.44-4.27,.39-3.77,.8-7.67,1.1-11.51,.42-5.28,.81-10.66,1.18-15.85,.37-5.18,.76-10.54,1.18-15.81,.58-7.35,1.2-14.82,1.8-22.04,.58-6.97,1.18-14.18,1.74-21.27l.02-.26c.38-4.74,.47-4.85,4.82-5.74,.42-.09,.83-.18,1.25-.29,16.24-4.09,31.82-3.4,46.3,2.07,10.86,4.1,19.99,10.78,27.13,19.86,2.04,2.58,3.95,5.38,5.8,8.09,.79,1.15,1.6,2.33,2.41,3.5,.06-.09,.12-.18,.18-.27,.32-.49,.73-1.11,1.22-1.59,1.33-1.32,2.68-2.69,3.98-4.01,3.31-3.37,6.73-6.86,10.34-9.9,9.58-8.08,20.78-13.68,33.29-16.64,11.84-2.8,24.02-2.91,36.19-.31,1.86,.4,2.49,1.2,2.61,3.31,.67,12.67,1.49,25.55,2.27,38l.13,1.98c.04,.62,.09,1.24,.14,1.86-.3-9.82-.87-19.14-1.36-26.49-.09-1.39,.08-2.18,.57-2.62,.42-.38,1.06-.48,2.02-.31,1.42,.25,2.88,.43,4.29,.6,.55,.07,1.1,.13,1.64,.2l.04-.51c-.61-.05-1.22-.11-1.83-.16-1.62-.15-3.29-.3-4.93-.29-1.24,0-2.05-.12-2.13-1.94-.06-1.52-.18-3.06-.29-4.55-.17-2.19-.34-4.45-.34-6.68,0-2.26-.84-2.84-2.5-3.18-14.2-2.85-28.06-2.28-41.19,1.7-12.3,3.73-23.56,10.15-33.49,19.1-2.58,2.33-5.07,4.94-7.48,7.47-1.12,1.17-2.27,2.38-3.43,3.57l-.19,.2-.35-.48c-.18-.25-.4-.56-.62-.86-.96-1.32-1.9-2.7-2.8-4.03-1.97-2.9-4.01-5.91-6.36-8.42-11.91-12.72-26.94-19.85-44.67-21.18-11.43-.86-20.77,.02-29.37,2.77-1.75,.56-3.1,1.18-3.22,3.63-.1,1.95-.36,4.01-.82,6.3-.15,.73-.86,1.74-1.53,1.9-5.42,1.29-5.48,1.35-6.5,7.29-.13,.73-.69,1.6-1.31,2-.59,.39-1.2,.73-1.82,1.05,.54-.17,1-.26,1.37-.26Zm-15.82,20.32l.04,.32,4.24-.55,.06-.86-4.34,1.08Zm124.12,94.34l1.75-1.28c5.24-3.81,11.17-6.77,18.14-9.05,16.12-5.27,32.89-6.88,51.29-4.92,5.15,.55,10.37,1.3,15.41,2.03,2.28,.33,4.56,.66,6.85,.97,1.69,.23,3.37,.47,5.12,.71l2.19,.31v-8.81l.7-.1,1.13,10.9-.3-.05c-1.15-.2-2.27-.4-3.38-.61-2.37-.44-4.61-.85-6.88-1.12-1.61-.19-3.22-.38-4.83-.57-9.06-1.06-18.43-2.16-27.67-2.92-4.83-.4-9.8,.03-14.08,.47-12.01,1.22-21.48,3.5-29.8,7.16l-15.64,6.88Zm56.44-15.58c-12.73,0-24.74,1.89-36.4,5.7-6.06,1.98-11.33,4.48-16.04,7.61l11.46-5.04c8.37-3.68,17.88-5.97,29.94-7.2,4.3-.44,9.3-.87,14.17-.47,9.24,.76,18.62,1.86,27.69,2.93,1.61,.19,3.22,.38,4.83,.57,2.29,.27,4.54,.68,6.92,1.12,1,.19,2.02,.37,3.07,.55l-.83-8.02v7.13l-2.73-.38c-1.75-.25-3.44-.48-5.12-.71-2.28-.31-4.57-.64-6.85-.97-5.04-.73-10.25-1.48-15.39-2.03-5.01-.53-9.91-.8-14.7-.8Zm43.9-5.89l-7.53-89.4,1.31-.13,.44,5.32c.32,3.81,.64,7.62,.95,11.43l.79,9.56c.81,9.86,1.63,19.73,2.43,29.59,.8,9.94,1.57,19.87,2.43,30.9,.06,.74-.09,1.42-.44,2.06l-.37,.68Zm-7.03-88.98l7.34,87.1c.04-.26,.06-.53,.03-.81-.85-11.03-1.62-20.96-2.43-30.9-.8-9.86-1.61-19.73-2.43-29.59l-.79-9.56c-.31-3.81-.63-7.62-.95-11.43l-.4-4.85-.38,.04ZM93.95,245.29v-9.83l.39,.34c1.14,.99,1.17,4.78,.07,8.11l-.46,1.38Zm.47-8.51v5.29c.46-2.19,.41-4.23,0-5.29Zm-3.44,2.56h-.47c-.35-4.62,.63-21.19,1.77-35.56,.38-4.84,2.35-29.03,3.5-30.17l.45-.45-5.26,66.18Zm4.52-62.88c-1.54,9.5-4.18,42.89-4.55,57.3l4.55-57.3Zm233.64,25.51l-3.12-26.87,1.47-.2,2.79,26.92-1.14,.16Zm-2.6-26.47l3.01,25.95,.22-.03-2.7-25.99-.54,.08Zm-3.84,12.48l-.75-10.04,.85-.27,.84,10.2-.94,.11Zm.34-1.78l.09,1.26h0s-.1-1.26-.1-1.26Zm-1.69-10.88l-2.26-9.01,.65-.43,.13,.17c.07,.09,.15,.17,.22,.25,.2,.21,.4,.42,.48,.7,.22,.76,.42,1.53,.62,2.31,.31,1.18,.63,2.39,1.01,3.56,.1,.31,.65,.6,1.12,.74,.18,.05,.37,.09,.57,.13,.46,.09,.98,.18,1.48,.55l.45,.33-4.49,.72Zm-1.72-8.81l2.07,8.28,2.81-.45c-.22-.07-.45-.12-.69-.16-.2-.04-.41-.08-.62-.14-.2-.06-1.22-.39-1.43-1.04-.38-1.18-.7-2.4-1.01-3.58-.2-.77-.4-1.53-.62-2.29-.05-.18-.21-.34-.37-.51-.04-.04-.07-.08-.11-.12l-.02,.02Zm-172.57-44.09l-.47-.03v-.23s-.06-.1-.06-.1l.08-.04v-.13s.2-.03,.2-.03c.05,0,.09-.01,.14-.02l1.18-.11-1.04,.56s-.02,.08-.03,.12Z"/></g><g><path class="cls-7" d="M98.14,201.15c.86-8.17,1.67-15.85,2.55-24.16-2.08,2.07-3.34,16.4-2.55,24.16Z"/><path d="M98.14,203.42l-.23-2.25c-.79-7.8,.48-22.22,2.62-24.35l.47-.46-2.86,27.06Zm2.22-25.49c-1.51,3.21-2.44,13.41-2.16,20.51l2.16-20.51Z"/></g><g><path class="cls-7" d="M111.63,279.39c5.95-.53,11.83-1.89,17.77-2.52,7.47-.79,14.97-1.57,22.47-1.67,11.26-.15,22.53,.29,33.79,.49,2.77,.05,5.54,.19,8.31,.16,1.17,0,2.33-.33,3.59-.52,.51,3.55,2.35,5.48,5.18,7.32,5.98,3.86,11.89,3.15,17.99,1.37,2.85-.83,5.04-3.93,5.67-7.77,3.06,0,6.17-.02,9.27,0,4.91,.05,9.82,.05,14.72,.22,3.6,.12,7.2,.53,10.8,.71,4,.21,8.02,.17,12.01,.49,5.12,.41,10.22,1.22,15.35,1.56,3.78,.26,7.59-.07,11.38,.09,2.89,.12,5.76,.67,8.64,.91,3.06,.25,6.14,.32,9.2,.55,1.42-2.19,2.77-4.42,4.06-6.69-2.96-.18-5.92-.33-8.88-.42-13.05-.39-26.11-.84-39.16-.92-12.66-.08-25.32,.27-37.98,.42-2.76,.03-5.51,0-8.27,.02-1.39,.01-2.39,.1-3.18,2.12-2.05,5.26-6.3,6.67-10.94,6.57-2.29-.05-4.57-.63-7.04-1,.43,.64,.9,1.33,1.37,2.03l-.3,.43c-1.78-1.67-3.49-3.45-5.35-5-2.27-1.89-2.95-4.36-2.32-7.89-4.08,.3-7.94,.66-11.8,.86-7.86,.4-15.72,.77-23.59,1.05-8.16,.29-16.32,.51-24.48,.69-5.36,.11-10.72-.1-16.07,.17-6.72,.34-13.44,.89-20.14,1.59-.36,.04-.73,.08-1.09,.13,1.07,1.86,2.19,3.68,3.34,5.48,1.88,.05,3.84-.87,5.67-1.04Z"/><path d="M212.23,285.7c-3.15,0-6.37-.75-9.62-2.85-2.72-1.76-4.66-3.68-5.25-7.24-.32,.05-.63,.11-.94,.17-.84,.16-1.64,.31-2.45,.31-1.79,.01-3.6-.04-5.35-.09-.99-.03-1.98-.06-2.97-.08-3.29-.06-6.63-.14-9.87-.22-7.84-.19-15.95-.38-23.91-.28-7.62,.1-15.5,.93-22.45,1.67-2.79,.29-5.61,.76-8.34,1.21-3.09,.51-6.28,1.03-9.44,1.32h0c-.77,.07-1.55,.27-2.38,.49-1.09,.28-2.21,.58-3.32,.55h-.12s-.07-.11-.07-.11c-1.18-1.83-2.31-3.68-3.35-5.49l-.17-.3,.35-.05c.36-.05,.73-.1,1.1-.13,7.28-.76,13.87-1.28,20.15-1.59,3.19-.16,6.43-.15,9.57-.14,2.13,0,4.34,.02,6.5-.03,8.8-.19,16.8-.41,24.48-.69,7-.25,14.49-.59,23.58-1.05,2.64-.13,5.24-.34,7.99-.56,1.25-.1,2.52-.2,3.8-.3l.3-.02-.05,.3c-.62,3.5,.07,5.86,2.24,7.67,1.29,1.08,2.54,2.28,3.74,3.45,.47,.46,.95,.92,1.43,1.37l.05-.07-1.58-2.34,.52,.08c.79,.12,1.56,.26,2.31,.39,1.63,.29,3.16,.57,4.7,.6,5.49,.11,8.99-1.99,10.72-6.42,.82-2.09,1.87-2.26,3.4-2.27,1.29-.01,2.58,0,3.87,0,1.47,0,2.94,0,4.41-.01,4.04-.05,8.09-.12,12.13-.18,8.47-.14,17.24-.29,25.85-.23,11.55,.07,23.29,.43,34.64,.78l4.52,.14c2.57,.08,5.39,.21,8.89,.42l.37,.02-.18,.33c-1.29,2.28-2.65,4.53-4.07,6.71l-.08,.12h-.14c-1.41-.11-2.84-.19-4.22-.26-1.63-.08-3.32-.17-4.98-.3-1.22-.1-2.46-.26-3.66-.41-1.63-.21-3.31-.42-4.97-.5-1.72-.07-3.48-.04-5.18-.02-2.04,.03-4.14,.07-6.21-.07-2.75-.19-5.54-.51-8.23-.82-2.33-.27-4.74-.55-7.11-.74-2.37-.19-4.78-.25-7.12-.32-1.6-.04-3.26-.09-4.89-.17-1.57-.08-3.17-.21-4.71-.33-1.99-.16-4.05-.32-6.08-.39-3.91-.13-7.9-.16-11.75-.19-.99,0-1.98-.02-2.96-.02-2.14-.02-4.31-.01-6.41,0-.89,0-1.77,0-2.66,0-.7,3.89-2.96,6.93-5.81,7.76-2.76,.81-5.63,1.46-8.56,1.46Zm-14.48-10.63l.03,.23c.51,3.54,2.4,5.42,5.07,7.15,6.13,3.96,12.17,2.98,17.8,1.34,2.72-.79,4.88-3.77,5.51-7.58l.03-.2h.2c.95,0,1.9,0,2.85,0,2.1,0,4.27-.01,6.42,0,.99,0,1.98,.02,2.96,.02,3.86,.03,7.84,.06,11.76,.19,2.04,.07,4.1,.23,6.1,.39,1.54,.12,3.13,.25,4.7,.33,1.62,.08,3.28,.13,4.87,.17,2.34,.06,4.77,.13,7.15,.32,2.38,.19,4.8,.47,7.13,.74,2.69,.31,5.47,.64,8.21,.82,2.05,.14,4.14,.1,6.17,.07,1.71-.03,3.47-.06,5.2,.02,1.68,.07,3.37,.29,5.01,.5,1.19,.15,2.43,.31,3.64,.41,1.65,.14,3.33,.22,4.96,.3,1.34,.07,2.73,.14,4.1,.24,1.31-2.03,2.59-4.12,3.79-6.24-3.32-.2-6.03-.32-8.5-.4l-4.52-.14c-11.35-.35-23.09-.71-34.63-.78-8.61-.05-17.37,.09-25.84,.23-4.05,.07-8.09,.14-12.14,.18-1.47,.02-2.94,.02-4.41,.01-1.29,0-2.57,0-3.86,0-1.41,.01-2.24,.11-2.97,1.98-1.81,4.64-5.45,6.83-11.16,6.72-1.58-.03-3.13-.31-4.78-.61-.58-.1-1.17-.21-1.77-.31l1.16,1.72-.55,.78-.2-.19c-.55-.51-1.09-1.04-1.63-1.56-1.2-1.16-2.43-2.36-3.71-3.42-2.25-1.88-3.01-4.3-2.45-7.82-1.18,.09-2.35,.18-3.5,.27-2.75,.22-5.36,.43-8.01,.56-9.09,.46-16.59,.8-23.59,1.05-7.68,.28-15.68,.5-24.48,.69-2.17,.05-4.38,.04-6.52,.03-3.13-.01-6.37-.02-9.55,.14-6.27,.31-12.85,.83-20.12,1.59-.25,.03-.49,.06-.74,.09,.97,1.67,2.01,3.37,3.1,5.06h.03c.99,0,2.03-.27,3.03-.53,.81-.21,1.65-.43,2.46-.5l.02,.23-.02-.23c3.14-.28,6.33-.8,9.4-1.31,2.74-.45,5.57-.91,8.37-1.21,6.96-.74,14.85-1.57,22.49-1.67,7.98-.11,16.09,.09,23.93,.28,3.23,.08,6.58,.16,9.87,.22,.99,.02,1.98,.05,2.97,.08,1.75,.05,3.56,.1,5.33,.09,.77,0,1.55-.15,2.37-.31,.39-.07,.78-.15,1.18-.21l.23-.04Z"/></g><g><path class="cls-7" d="M231.63,279.49c-1.65-.15-2.54,.29-3.18,2.22-1.14,3.45-3.76,5.45-6.65,6.38-6.98,2.25-14.01,2.2-20.58-1.7-2.11-1.25-3.66-3.72-5.51-5.56-.58-.58-1.32-1.32-2.01-1.34-10.03-.35-20.06-.73-30.09-.84-16.11-.17-32.15,1.07-48.12,3.61-2.51,.4-5.01,.8-7.51,1.2,22.73,33.09,60.83,54.79,104,54.79s79.84-20.89,102.7-52.93c-21.79-1.48-43.58-2.97-65.37-4.47-5.9-.41-11.79-.83-17.68-1.36Z"/><path d="M211.98,338.49c-41.63,0-80.58-20.52-104.19-54.89l-.21-.3,2.61-.42c1.76-.28,3.51-.56,5.27-.84,16.16-2.57,32.36-3.78,48.15-3.61,9.19,.1,18.53,.43,27.56,.75l2.54,.09c.77,.03,1.54,.79,2.15,1.4,.65,.65,1.27,1.38,1.87,2.08,1.11,1.31,2.26,2.66,3.61,3.46,5.97,3.55,12.83,4.11,20.39,1.68,2.27-.73,5.24-2.41,6.5-6.24,.63-1.9,1.55-2.55,3.42-2.38,6.05,.54,12.07,.97,17.68,1.36,21.49,1.48,42.98,2.94,64.47,4.41l1.32,.09-.24,.34c-11.45,16.05-26.71,29.38-44.12,38.55-17.99,9.47-38.31,14.48-58.77,14.48Zm-103.6-54.85c23.54,34.06,62.24,54.39,103.6,54.39,20.39,0,40.64-4.99,58.56-14.42,17.22-9.07,32.33-22.23,43.72-38.07l-.49-.03c-21.49-1.46-42.98-2.93-64.47-4.41-5.61-.39-11.63-.82-17.69-1.36-1.45-.13-2.31,.15-2.93,2.06-1.32,4.02-4.43,5.77-6.8,6.53-7.69,2.48-14.68,1.9-20.77-1.72-1.42-.84-2.59-2.22-3.73-3.56-.59-.69-1.2-1.41-1.83-2.04-.54-.53-1.26-1.25-1.85-1.27l-2.54-.09c-9.03-.32-18.37-.65-27.55-.75-15.77-.17-31.94,1.04-48.08,3.6-1.76,.28-3.51,.56-5.27,.84l-1.88,.3Z"/></g><g><path d="M217.43,266.13s.02,.05,.03,.07c0,0,0,0,.01-.01l-.05-.06Z"/><polygon points="217.41 266.57 217.26 266.31 216.32 264.53 217.8 266.2 217.41 266.57"/></g><g><path d="M108.8,246.45s.06-.07,.09-.11c-.04,.02-.08,.05-.13,.07,0,0,.03,.04,.03,.04Z"/><path d="M108.8,246.8l-.17-.19s-.02-.02-.02-.03h0s0,0,0,0c-.13-.17-.05-.29,0-.33l.17-.16,.04,.04,1.19-.69-1.19,1.37Z"/></g><g><path d="M123.84,273.23c5.35-.27,10.71-.05,16.07-.17,8.16-.17,16.32-.39,24.48-.69,7.86-.28,15.73-.65,23.59-1.05,3.86-.2,7.72-.56,11.8-.86-.63,3.53,.05,6,2.32,7.89,1.86,1.55,3.57,3.32,5.35,5l.3-.43c-.47-.7-.94-1.4-1.37-2.03,2.48,.37,4.76,.95,7.04,1,4.64,.1,8.89-1.31,10.94-6.57,.79-2.02,1.79-2.11,3.18-2.12,2.76-.02,5.51,.01,8.27-.02,12.66-.15,25.32-.5,37.98-.42,13.05,.08,26.11,.53,39.16,.92,2.96,.09,5.92,.24,8.88,.42,.22-.39,.44-.79,.66-1.18-19.83-.58-39.66-1.27-59.49-1.55-12.31-.17-24.63,.53-36.94,.8-.81,.02-1.71-.15-2.42-.56-1.71-.98-3.39-2.07-4.96-3.31-.56-.44-.82-1.37-1.2-2.1-1.39,1.32-2.92,1.23-4.92,.66,.61-.87,.99-1.51,1.44-2.07,2.58-3.15,5.15-6.29,7.76-9.4,6.68-7.99,14.42-14.19,23.39-18.42,13.5-6.35,27.63-6.93,41.89-6.13,5.88,.33,11.73,1.22,17.59,1.92,1.48,.18,1.94-.45,1.8-2.05-.54-6.13-1.03-12.27-1.55-18.4-.36-4.26-.68-8.53-1.09-12.79-.41-4.28-.91-8.56-1.38-12.83-.26,2.78-.27,5.55-.01,8.29,1.03,11.17,2.15,22.33,3.2,33.49,.29,3.12,.18,3.18-2.59,2.68-14.15-2.57-28.33-3.24-42.51-.41-8.4,1.68-16.36,4.83-23.72,9.88-7.76,5.32-14.49,12.02-20.45,19.76-1.1,1.42-2.21,2.83-3.31,4.25-.22-.06-.43-.12-.65-.19-.62-31.99-1.23-63.97-1.85-95.96-.26,0-.52,.01-.77,.02,.39,32.66,.78,65.31,1.17,98.22-.44-.46-.78-.73-1.03-1.08-8.3-11.46-18.67-19.68-30.59-25.44-8.51-4.11-17.37-6.64-26.51-8.12-8.58-1.39-17.15-1.83-25.75-.45-2.25,.36-4.45,1.1-6.67,1.67,.04,.2,.07,.4,.11,.59,.56-.05,1.12-.04,1.66-.15,6.02-1.28,12.07-2.28,18.2-1.63,6.45,.68,12.92,1.38,19.32,2.51,3.77,.67,7.45,2.1,11.13,3.36,13.33,4.57,25.03,12.33,34.81,23.73,1.43,1.67,2.65,3.58,3.97,5.38-.14,.17-.28,.33-.41,.5-.36-.14-.8-.19-1.07-.45-6.07-5.65-12.92-9.82-19.97-13.51-18.5-9.67-37.93-14.14-58.28-13.41-6.66,.24-13.19,1.16-19.32,4.4-.63,.34-1.09,1.11-1.61,1.71,5.64-3.32,11.8-4.56,17.97-4.85,6.91-.33,13.89-.04,20.79,.65,5.55,.56,11.07,1.85,16.51,3.29,13.01,3.44,25.03,9.69,36.54,17.33,.57,.38,1.04,.98,1.91,1.82-.8,0-1.08,.06-1.33,0-7.37-2.14-14.68-4.64-22.13-6.37-11.28-2.62-22.59-5.27-34-6.86-12.6-1.76-25.31-1.48-37.86,1.26-2,.44-3.94,1.24-5.91,1.87,.54,.54,.96,.54,1.36,.48,6.75-1.05,13.48-2.59,20.26-3.02,7.2-.46,14.46-.18,21.66,.35,5.38,.4,10.7,1.71,16.05,2.65,12.6,2.21,24.98,5.57,37.17,9.81,1.53,.53,3.02,1.2,4.53,1.81-35.41-5.19-70.78-7.25-106.29-4.54,.16,.36,.32,.73,.48,1.09,17.06-2.19,34.12-1.73,51.21-.75,17.92,1.03,35.77,2.57,53.46,6.17-.4,.41-.79,.56-1.19,.59-4.4,.37-8.8,.9-13.2,1.04-19.22,.6-38.44,1.11-57.66,1.59-9.16,.23-18.32,.51-27.39,1.86,.26,.46,.51,.92,.77,1.38,.36-.05,.73-.09,1.09-.13,6.7-.7,13.42-1.25,20.14-1.59Z"/><path d="M207.47,283.71l-.2-.18c-.55-.51-1.09-1.04-1.63-1.56-1.2-1.16-2.43-2.36-3.71-3.42-2.25-1.88-3.01-4.3-2.45-7.82-1.18,.09-2.35,.18-3.5,.27-2.75,.22-5.36,.43-8.01,.56-9.09,.46-16.59,.8-23.59,1.05-7.68,.28-15.68,.5-24.48,.69-2.17,.05-4.38,.04-6.52,.03-3.13-.01-6.37-.02-9.55,.14-6.27,.31-12.85,.83-20.12,1.59-.36,.04-.72,.08-1.08,.13l-.16,.02-.08-.14c-.18-.32-.36-.64-.54-.95l-.4-.72,.33-.05c8.84-1.31,17.65-1.62,27.42-1.86,22.37-.56,40.69-1.06,57.65-1.59,3.09-.1,6.24-.39,9.28-.68,1.3-.12,2.61-.25,3.91-.36,.25-.02,.48-.09,.68-.23-18.56-3.73-37.17-5.16-52.96-6.07-16.27-.93-33.74-1.49-51.16,.75l-.17,.02-.07-.16c-.16-.36-.32-.73-.48-1.09l-.13-.3,.33-.02c32.79-2.5,66.99-1.1,104.48,4.27-.91-.38-1.85-.76-2.78-1.09-12.65-4.4-25.15-7.7-37.14-9.8-1.56-.27-3.14-.58-4.67-.88-3.72-.73-7.56-1.48-11.35-1.76-8.56-.64-15.43-.75-21.63-.35-4.68,.3-9.41,1.14-13.99,1.96-2.05,.36-4.16,.74-6.25,1.06-.43,.07-.94,.09-1.57-.54l-.27-.27,.36-.12c.62-.2,1.24-.41,1.86-.63,1.32-.46,2.69-.94,4.07-1.24,12.15-2.66,24.92-3.08,37.95-1.26,11.19,1.56,22.45,4.18,33.33,6.7l.68,.16c5.09,1.18,10.2,2.75,15.14,4.27,2.29,.7,4.66,1.43,7,2.11,.12,.03,.27,.03,.54,.02,.05,0,.11,0,.17,0-.15-.15-.28-.29-.4-.41-.41-.42-.73-.75-1.08-.99-12.89-8.56-24.82-14.22-36.47-17.3-4.92-1.3-10.72-2.7-16.48-3.28-7.33-.74-14.32-.95-20.75-.65-7.09,.34-12.93,1.91-17.86,4.82l-1.23,.72,.93-1.08c.14-.16,.28-.34,.41-.52,.38-.48,.76-.98,1.27-1.25,6.69-3.54,13.89-4.23,19.42-4.43,20.31-.73,39.95,3.79,58.39,13.43,5.81,3.04,13.34,7.33,20.02,13.55,.15,.14,.38,.21,.62,.28,.07,.02,.15,.04,.22,.07l.19-.24c-.38-.52-.75-1.05-1.12-1.59-.86-1.23-1.75-2.5-2.72-3.63-9.49-11.06-21.17-19.02-34.71-23.66-.64-.22-1.28-.44-1.92-.67-2.99-1.05-6.08-2.13-9.17-2.68-6.2-1.1-12.41-1.79-19.3-2.51-6.15-.65-12.35,.4-18.13,1.63-.39,.08-.79,.1-1.17,.13-.17,0-.35,.02-.52,.03l-.21,.02-.19-1.02,.21-.05c.7-.18,1.39-.37,2.09-.57,1.5-.42,3.05-.85,4.6-1.1,7.79-1.26,16.23-1.11,25.82,.45,9.84,1.6,18.54,4.26,26.58,8.14,12.62,6.09,22.66,14.44,30.68,25.51,.15,.21,.35,.4,.59,.63,0,0,.01,.01,.02,.02l-1.17-97.88,1.24-.03,1.85,96.02,.33,.09,.96-1.23c.75-.96,1.51-1.92,2.25-2.89,6.32-8.2,13.03-14.67,20.5-19.81,7.05-4.84,15.06-8.17,23.8-9.92,12.93-2.58,26.87-2.45,42.6,.41,1.21,.22,1.96,.34,2.22,.1,.28-.26,.22-1.13,.09-2.52-.45-4.75-.91-9.5-1.37-14.26-.61-6.3-1.24-12.82-1.83-19.24-.25-2.73-.25-5.53,.01-8.33l.22-2.31,.25,2.31c.14,1.3,.29,2.61,.43,3.91,.32,2.92,.66,5.95,.95,8.93,.29,3.04,.55,6.14,.79,9.14,.1,1.22,.2,2.43,.3,3.65,.16,1.88,.31,3.76,.47,5.65,.35,4.25,.71,8.5,1.08,12.75,.09,.98-.05,1.59-.43,1.96-.34,.33-.86,.44-1.63,.35-1.45-.17-2.9-.36-4.35-.55-4.33-.56-8.82-1.13-13.23-1.38-12.73-.71-27.66-.53-41.77,6.11-8.72,4.1-16.56,10.28-23.31,18.35-2.73,3.26-5.43,6.56-7.76,9.4-.29,.36-.56,.76-.87,1.23-.11,.17-.24,.35-.37,.55,1.78,.46,3.15,.48,4.38-.69l.22-.21,.14,.27c.11,.22,.22,.45,.32,.69,.23,.52,.47,1.07,.82,1.34,1.47,1.15,3.08,2.22,4.94,3.29,.61,.35,1.45,.55,2.3,.53,4.11-.09,8.28-.23,12.32-.36,8.07-.27,16.42-.55,24.62-.44,15.45,.21,31.16,.69,46.34,1.15,4.38,.13,8.77,.27,13.15,.39h.38s-.18,.35-.18,.35c-.22,.4-.44,.79-.66,1.19l-.07,.13h-.15c-3.49-.22-6.31-.35-8.88-.43l-4.52-.14c-11.35-.35-23.09-.71-34.63-.78-8.61-.05-17.37,.09-25.84,.23-4.05,.07-8.09,.14-12.14,.18-1.47,.02-2.94,.01-4.41,.01-1.29,0-2.57,0-3.86,0-1.41,.01-2.24,.11-2.97,1.98-1.81,4.64-5.45,6.83-11.16,6.72-1.58-.03-3.13-.31-4.78-.61-.58-.1-1.17-.21-1.77-.31l1.16,1.72-.55,.78Zm-7.42-13.5l-.05,.3c-.62,3.5,.07,5.86,2.24,7.67,1.29,1.08,2.54,2.28,3.74,3.45,.47,.46,.95,.92,1.43,1.37l.05-.07-1.58-2.34,.52,.08c.79,.12,1.56,.26,2.31,.39,1.63,.29,3.16,.57,4.7,.6,5.48,.11,8.99-1.99,10.72-6.42,.82-2.09,1.87-2.26,3.4-2.27,1.29-.01,2.58,0,3.87,0,1.47,0,2.94,0,4.41-.01,4.04-.05,8.09-.12,12.13-.18,8.47-.14,17.23-.29,25.85-.23,11.55,.07,23.29,.43,34.64,.78l4.52,.14c2.53,.08,5.31,.21,8.74,.41,.14-.24,.27-.48,.4-.72-4.26-.12-8.51-.25-12.77-.38-15.19-.46-30.89-.94-46.34-1.15-8.2-.11-16.54,.17-24.6,.44-4.04,.14-8.22,.28-12.33,.36-.95,.02-1.85-.19-2.55-.59-1.88-1.08-3.51-2.17-4.99-3.33-.44-.35-.7-.94-.96-1.52-.06-.13-.11-.26-.17-.39-1.4,1.17-2.93,1.07-4.91,.51l-.32-.09,.19-.27c.21-.3,.39-.57,.55-.81,.32-.48,.59-.89,.9-1.27,2.32-2.84,5.03-6.14,7.76-9.4,6.79-8.13,14.69-14.35,23.47-18.48,14.21-6.69,29.21-6.87,42-6.16,4.43,.25,8.92,.82,13.27,1.38,1.45,.19,2.9,.37,4.34,.55,.61,.07,1.02,0,1.25-.22,.27-.26,.36-.76,.29-1.58-.37-4.25-.73-8.5-1.08-12.76-.16-1.88-.31-3.76-.47-5.65-.1-1.22-.2-2.43-.3-3.65-.24-2.99-.5-6.09-.79-9.13-.29-2.98-.62-6-.95-8.92-.05-.41-.09-.82-.14-1.23-.06,1.87-.01,3.73,.16,5.56,.59,6.41,1.22,12.93,1.83,19.24,.46,4.75,.92,9.5,1.37,14.26,.15,1.63,.21,2.5-.24,2.91-.43,.39-1.15,.28-2.62,.02-15.67-2.84-29.55-2.98-42.42-.41-8.68,1.73-16.63,5.05-23.63,9.85-7.44,5.1-14.11,11.55-20.4,19.71-.75,.97-1.5,1.93-2.26,2.89l-1.16,1.48-.96-.28v-.17s-1.84-95.72-1.84-95.72h-.31s1.18,98.59,1.18,98.59l-.41-.42c-.15-.15-.29-.29-.41-.41-.25-.24-.46-.45-.64-.69-7.98-11.01-17.95-19.31-30.5-25.36-8-3.86-16.65-6.51-26.45-8.1-9.54-1.55-17.94-1.7-25.68-.45-1.53,.25-3.06,.68-4.55,1.09-.63,.18-1.26,.35-1.89,.52l.03,.17c.11,0,.22-.01,.33-.02,.38-.02,.74-.04,1.1-.12,5.82-1.24,12.05-2.29,18.27-1.64,6.91,.72,13.13,1.41,19.34,2.51,3.13,.55,6.24,1.64,9.25,2.7,.64,.22,1.28,.45,1.92,.67,13.62,4.67,25.37,12.68,34.91,23.8,.99,1.15,1.88,2.43,2.75,3.67,.41,.58,.81,1.16,1.23,1.72l.11,.15-.64,.77-.16-.06c-.11-.04-.22-.08-.34-.11-.28-.08-.58-.17-.81-.38-6.64-6.18-14.13-10.45-19.92-13.47-18.37-9.61-37.94-14.11-58.16-13.38-5.47,.2-12.61,.87-19.22,4.37-.29,.15-.54,.41-.79,.71,4.77-2.57,10.36-3.97,17.02-4.29,6.46-.31,13.47-.09,20.82,.65,5.79,.58,11.62,1.99,16.55,3.3,11.7,3.09,23.67,8.77,36.61,17.36,.39,.26,.73,.61,1.16,1.05,.23,.24,.48,.5,.79,.79l.42,.4h-.58c-.3,0-.53,0-.71,.02-.31,.01-.49,.02-.69-.04-2.34-.68-4.71-1.41-7-2.11-4.93-1.51-10.04-3.08-15.11-4.26l-.68-.16c-10.88-2.53-22.13-5.14-33.29-6.7-12.97-1.81-25.68-1.39-37.78,1.26-1.35,.3-2.71,.77-4.02,1.23-.49,.17-.98,.34-1.47,.5,.32,.21,.58,.2,.86,.15,2.08-.32,4.2-.7,6.24-1.06,4.59-.82,9.34-1.66,14.04-1.96,6.22-.4,13.11-.29,21.69,.35,3.83,.29,7.68,1.04,11.41,1.77,1.53,.3,3.11,.61,4.66,.88,12.01,2.1,24.53,5.41,37.21,9.82,1.05,.37,2.1,.8,3.11,1.22,.48,.2,.95,.4,1.43,.59l1.83,.73-1.95-.29c-38.06-5.57-72.71-7.07-105.91-4.57,.09,.21,.18,.42,.28,.63,17.41-2.22,34.83-1.66,51.08-.73,15.93,.92,34.75,2.36,53.5,6.17l.42,.09-.3,.31c-.4,.41-.82,.62-1.34,.66-1.3,.11-2.61,.23-3.91,.36-3.05,.29-6.2,.59-9.31,.68-16.96,.53-35.28,1.03-57.66,1.59-9.63,.24-18.32,.54-27.03,1.8l.07,.13c.15,.27,.3,.54,.45,.81,.31-.04,.63-.08,.94-.11,7.28-.76,13.87-1.28,20.15-1.59v.23s0-.23,0-.23c3.19-.16,6.43-.15,9.57-.14,2.13,0,4.34,.02,6.5-.03,8.8-.19,16.8-.41,24.48-.69,7-.25,14.49-.59,23.58-1.05,2.64-.13,5.24-.34,7.99-.56,1.25-.1,2.52-.2,3.8-.3l.3-.02Z"/></g><g><path d="M308.56,280.25c-2.88-.24-5.75-.79-8.64-.91-3.79-.16-7.6,.17-11.38-.09-5.12-.35-10.22-1.15-15.35-1.56-3.99-.32-8.01-.28-12.01-.49-3.6-.19-7.2-.59-10.8-.71-4.9-.17-9.81-.17-14.72-.22-3.1-.03-6.21,0-9.27,0-.63,3.83-2.83,6.93-5.67,7.77-6.1,1.78-12.01,2.5-17.99-1.37-2.83-1.83-4.67-3.76-5.18-7.32-1.26,.19-2.42,.51-3.59,.52-2.77,.02-5.54-.12-8.31-.16-11.26-.2-22.53-.64-33.79-.49-7.5,.1-15,.88-22.47,1.67-5.94,.63-11.83,1.99-17.77,2.52-1.83,.16-3.79,1.09-5.67,1.04,.66,1.02,1.34,2.03,2.02,3.03,2.5-.4,5.01-.81,7.51-1.2,15.96-2.53,32-3.78,48.12-3.61,10.03,.11,20.06,.49,30.09,.84,.68,.02,1.42,.76,2.01,1.34,1.86,1.84,3.4,4.31,5.51,5.56,6.57,3.9,13.6,3.95,20.58,1.7,2.9-.93,5.52-2.93,6.65-6.38,.63-1.92,1.53-2.37,3.18-2.22,5.89,.53,11.79,.95,17.68,1.36,21.79,1.5,43.58,2.98,65.37,4.47,1.06-1.48,2.08-3,3.08-4.53-3.06-.22-6.14-.3-9.2-.55Z"/><path d="M212.87,289.82c-4.21,0-8.15-1.08-11.77-3.23-1.42-.84-2.59-2.22-3.73-3.56-.59-.69-1.2-1.41-1.83-2.04-.54-.53-1.26-1.25-1.85-1.27l-2.54-.09c-9.03-.32-18.37-.65-27.55-.75-15.77-.17-31.94,1.04-48.08,3.6-1.76,.28-3.51,.56-5.27,.84l-2.39,.38-.08-.12c-.75-1.09-1.41-2.08-2.03-3.04l-.24-.37h.44c1.03,.05,2.13-.24,3.18-.52,.81-.21,1.65-.43,2.46-.5,3.14-.28,6.33-.8,9.4-1.31,2.74-.45,5.57-.91,8.37-1.21,6.96-.74,14.85-1.57,22.49-1.67,7.98-.11,16.09,.09,23.93,.28,3.23,.08,6.58,.16,9.87,.22,.99,.02,1.98,.05,2.97,.08,1.75,.05,3.56,.1,5.33,.09,.77,0,1.55-.15,2.37-.31,.39-.07,.78-.15,1.18-.21l.23-.04,.03,.23c.51,3.54,2.4,5.42,5.07,7.15,6.13,3.96,12.17,2.98,17.8,1.34,2.72-.79,4.88-3.77,5.51-7.58l.03-.2h.2c.95,0,1.9,0,2.85,0,2.1,0,4.27-.01,6.42,0,.99,0,1.98,.02,2.96,.02,3.86,.03,7.84,.06,11.76,.19,2.04,.07,4.1,.23,6.1,.39,1.54,.12,3.13,.25,4.7,.33,1.62,.08,3.28,.13,4.87,.17,2.34,.06,4.77,.13,7.15,.32,2.38,.19,4.8,.47,7.13,.74,2.69,.31,5.47,.64,8.21,.82,2.05,.14,4.14,.1,6.17,.07,1.71-.03,3.47-.06,5.2,.02,1.68,.07,3.37,.29,5.01,.5,1.19,.15,2.43,.31,3.64,.41,1.65,.14,3.33,.22,4.96,.3,1.39,.07,2.82,.14,4.23,.25l.39,.03-.22,.33c-1.03,1.59-2.07,3.11-3.08,4.54l-.08,.11-1.03-.07c-21.49-1.46-42.98-2.93-64.47-4.41-5.61-.39-11.63-.82-17.69-1.36-1.45-.13-2.31,.15-2.93,2.06-1.32,4.02-4.43,5.77-6.8,6.53-3.12,1.01-6.13,1.51-9,1.51Zm-52.17-11.42c.98,0,1.95,0,2.92,.02,9.19,.1,18.53,.43,27.56,.75l2.54,.09c.77,.03,1.54,.79,2.15,1.4,.65,.65,1.27,1.38,1.87,2.08,1.11,1.31,2.26,2.66,3.61,3.46,5.97,3.55,12.83,4.11,20.39,1.68,2.27-.73,5.24-2.41,6.5-6.24,.63-1.9,1.55-2.55,3.42-2.38,6.05,.54,12.07,.97,17.68,1.36,21.49,1.48,42.98,2.94,64.47,4.41l.77,.05c.92-1.29,1.85-2.66,2.78-4.08-1.28-.09-2.57-.15-3.83-.22-1.63-.08-3.32-.17-4.98-.3-1.22-.1-2.46-.26-3.66-.41-1.63-.21-3.31-.42-4.97-.5-1.72-.07-3.48-.04-5.18-.02-2.04,.03-4.14,.07-6.21-.07-2.75-.19-5.54-.51-8.23-.82-2.33-.27-4.74-.55-7.11-.74-2.37-.19-4.78-.25-7.12-.32-1.6-.04-3.26-.09-4.89-.17-1.57-.08-3.17-.21-4.71-.33-1.99-.16-4.05-.32-6.08-.39-3.91-.13-7.9-.16-11.75-.19-.99,0-1.98-.02-2.96-.02-2.14-.02-4.31-.01-6.41,0-.89,0-1.77,0-2.66,0-.7,3.89-2.96,6.93-5.81,7.76-5.73,1.68-11.9,2.67-18.18-1.4-2.72-1.76-4.66-3.68-5.25-7.24-.32,.05-.63,.11-.94,.17-.84,.16-1.64,.31-2.46,.31-1.78,.01-3.6-.04-5.35-.09-.99-.03-1.98-.06-2.97-.08-3.29-.06-6.63-.14-9.87-.22-7.84-.19-15.95-.38-23.91-.28-7.62,.1-15.5,.93-22.45,1.67-2.79,.29-5.61,.76-8.34,1.21-3.09,.51-6.28,1.03-9.44,1.32-.77,.07-1.55,.27-2.38,.49-.95,.25-1.92,.5-2.88,.54,.53,.81,1.09,1.65,1.71,2.55l2.1-.34c1.76-.28,3.51-.56,5.27-.84,15.16-2.41,30.37-3.63,45.23-3.63Z"/></g><g><path d="M108.87,155.08s.09-.04,.13-.07c-.06,0-.11,.01-.17,.02,0,0,.03,.04,.04,.05Z"/><path d="M108.82,155.37l-.42-.52,.41-.06s.09-.01,.14-.02l1.18-.11-1.31,.7Z"/></g><g><path d="M107.66,239.68c1.33-15.32,2.61-30.64,3.94-45.96,1.25-14.43,2.56-28.86,3.81-43.29,.34-3.92,1.63-5.34,5.02-5.5,1.23-.06,1.71,.41,1.56,1.83-.26,2.51-.48,5.02-.69,7.53-1.6,19.47-3.2,38.93-4.78,58.4-.46,5.63-.81,11.28-1.21,16.92,.55-.11,.73-.29,.75-.49,.53-5.26,1.13-10.51,1.54-15.78,.84-10.55,1.53-21.11,2.36-31.66,1.14-14.44,2.39-28.87,3.54-43.31,.39-4.9,.31-4.9,4.65-5.79,.42-.09,.84-.19,1.26-.29,15.55-3.92,30.98-3.67,46.16,2.07,10.44,3.95,19.62,10.38,27.03,19.79,2.96,3.75,5.58,7.85,8.4,11.85,.4-.54,.89-1.44,1.56-2.1,4.73-4.69,9.28-9.67,14.3-13.91,9.93-8.38,21.14-13.74,33.19-16.59,11.98-2.84,24.03-2.88,36.09-.31,1.72,.37,2.31,1.02,2.42,3.09,.71,13.33,1.56,26.66,2.4,39.98,.17,2.61,.5,5.21,.75,7.81-.19-10.86-.79-21.68-1.51-32.48-.15-2.22,.36-3.03,2.31-2.68,2.05,.36,4.12,.56,6.19,.83,.03-.33,.05-.66,.08-.98-2.34-.18-4.68-.5-7.02-.48-1.23,.01-1.83-.12-1.89-1.72-.15-3.74-.63-7.48-.63-11.22,0-2.35-.91-3.05-2.69-3.4-13.88-2.78-27.69-2.42-41.3,1.71-12.3,3.73-23.56,10.12-33.57,19.15-3.78,3.41-7.23,7.3-10.92,11.05-.2-.27-.5-.7-.81-1.12-3.04-4.18-5.74-8.79-9.18-12.48-12.58-13.43-27.82-19.97-44.83-21.25-9.91-.74-19.79-.31-29.46,2.78-1.82,.58-3.26,1.27-3.39,3.84-.1,2.1-.41,4.21-.82,6.27-.13,.67-.81,1.59-1.35,1.72-5.5,1.3-5.65,1.46-6.67,7.48-.12,.69-.67,1.49-1.21,1.85-1.29,.84-2.69,1.48-4.05,2.18,.29-.03,.59-.04,.86-.14,3.97-1.58,4.41-1.13,3.97,3.64-1.09,11.72-2.12,23.45-3.18,35.18-1.38,15.28-2.79,30.55-4.12,45.84-.22,2.51-.03,5.07-.03,7.81,.94-.38,1.6-.65,2.24-.92-.57-.18-1.14-.36-1.82-.57,.26-2.16,.57-4.16,.74-6.18Z"/><path d="M106.27,247.69v-.35c0-.88-.02-1.74-.04-2.59-.04-1.82-.08-3.53,.07-5.25,.97-11.21,2-22.59,3.01-33.6,.37-4.08,.74-8.16,1.11-12.24,.33-3.7,.67-7.41,1-11.11,.71-7.89,1.44-16.05,2.18-24.07,.21-2.27,.23-3.66-.31-4.06-.49-.37-1.64-.02-3.34,.65-.25,.1-.52,.12-.77,.14l-1.35,.13,1.07-.56c.36-.19,.72-.37,1.08-.55,.99-.5,2.01-1.01,2.95-1.62,.51-.33,1.01-1.09,1.11-1.69,1.05-6.12,1.24-6.34,6.85-7.67,.43-.1,1.06-.92,1.18-1.54,.45-2.27,.72-4.31,.81-6.23,.14-2.74,1.76-3.48,3.55-4.05,8.66-2.77,18.05-3.65,29.55-2.79,17.85,1.34,32.99,8.52,44.98,21.32,2.38,2.54,4.43,5.56,6.41,8.48,.9,1.33,1.84,2.71,2.79,4.02,.22,.31,.44,.61,.62,.86l.02,.03c1.09-1.12,2.18-2.26,3.23-3.36,2.41-2.53,4.91-5.15,7.5-7.5,9.97-9,21.3-15.46,33.66-19.2,13.2-4,27.14-4.58,41.42-1.71,1.77,.35,2.87,1.09,2.87,3.63,0,2.21,.18,4.46,.34,6.64,.11,1.5,.23,3.04,.29,4.57,.06,1.45,.52,1.5,1.66,1.5,1.66-.02,3.35,.14,4.98,.3,.68,.06,1.37,.13,2.06,.18l.23,.02-.12,1.46-.24-.03c-.63-.08-1.25-.16-1.88-.23-1.42-.17-2.88-.35-4.32-.6-.8-.14-1.32-.08-1.63,.2-.37,.33-.5,1.02-.41,2.24,.59,8.84,1.3,20.51,1.51,32.49l-.47,.03c-.08-.82-.17-1.64-.26-2.46-.19-1.75-.38-3.57-.5-5.36l-.13-1.98c-.79-12.45-1.6-25.33-2.27-38-.1-1.91-.58-2.52-2.24-2.88-12.11-2.58-24.22-2.47-35.99,.31-12.44,2.94-23.57,8.51-33.09,16.54-3.6,3.04-7.01,6.51-10.31,9.88-1.3,1.32-2.64,2.69-3.98,4.02-.46,.45-.83,1.02-1.16,1.52-.14,.21-.26,.4-.38,.56l-.19,.26-.19-.27c-.88-1.25-1.76-2.54-2.61-3.78-1.85-2.7-3.76-5.49-5.78-8.06-7.09-9.01-16.15-15.64-26.93-19.71-14.39-5.44-29.87-6.13-46.02-2.06-.42,.11-.84,.21-1.27,.29q-4.09,.83-4.44,5.32l-.02,.26c-.56,7.09-1.16,14.3-1.74,21.28-.6,7.22-1.22,14.69-1.8,22.04-.42,5.26-.8,10.62-1.18,15.8-.38,5.2-.76,10.57-1.18,15.86-.3,3.85-.71,7.75-1.1,11.52-.15,1.42-.3,2.84-.44,4.27-.05,.46-.55,.62-.93,.69l-.3,.06,.02-.31c.13-1.77,.25-3.55,.37-5.33,.26-3.8,.53-7.73,.84-11.59,1.33-16.5,2.71-33.27,4.04-49.49l.73-8.91c.18-2.22,.41-4.85,.69-7.54,.07-.65,0-1.07-.22-1.3-.2-.21-.54-.29-1.1-.27-3.26,.15-4.47,1.49-4.8,5.28-.62,7.15-1.25,14.31-1.89,21.46-.64,7.28-1.29,14.55-1.92,21.83-.69,7.98-1.37,15.96-2.05,23.94-.63,7.34-1.25,14.69-1.89,22.03l-.23-.02,.23,.02c-.12,1.37-.3,2.72-.48,4.15-.08,.6-.16,1.22-.24,1.84,.6,.19,1.11,.35,1.63,.51l.6,.19-.58,.25c-.64,.27-1.3,.54-2.24,.92l-.32,.13Zm.46-1.65c0,.32,0,.64,.01,.96,.51-.21,.93-.38,1.33-.54-.38-.12-.77-.24-1.21-.38l-.13-.04Zm6.01-92.23c.34,0,.62,.08,.84,.24,.72,.54,.73,1.87,.49,4.47-.75,8.02-1.48,16.18-2.18,24.07-.33,3.7-.66,7.41-1,11.11-.37,4.08-.74,8.16-1.11,12.24-1,11.01-2.04,22.4-3.01,33.6-.15,1.69-.11,3.4-.07,5.2,0,.29,.01,.57,.02,.86,.08-.62,.16-1.22,.23-1.82,.19-1.42,.36-2.76,.48-4.13,.64-7.34,1.26-14.69,1.89-22.03,.68-7.98,1.36-15.96,2.05-23.94,.63-7.28,1.28-14.55,1.92-21.83,.63-7.15,1.27-14.3,1.89-21.46,.35-4.05,1.72-5.54,5.24-5.71,.7-.03,1.16,.1,1.46,.41,.32,.34,.43,.87,.34,1.67-.28,2.68-.51,5.31-.69,7.53l-.73,8.91c-1.33,16.22-2.71,32.99-4.04,49.49-.31,3.86-.58,7.79-.84,11.59-.11,1.67-.23,3.33-.35,5,.16-.06,.25-.13,.26-.2,.14-1.42,.29-2.85,.44-4.27,.39-3.77,.8-7.67,1.1-11.51,.42-5.28,.81-10.66,1.18-15.85,.37-5.18,.76-10.54,1.18-15.81,.58-7.35,1.2-14.82,1.8-22.04,.58-6.97,1.18-14.18,1.74-21.27l.02-.26c.38-4.74,.47-4.85,4.82-5.74,.42-.09,.83-.18,1.25-.29,16.24-4.09,31.82-3.4,46.3,2.07,10.86,4.1,19.99,10.78,27.13,19.86,2.03,2.58,3.95,5.38,5.8,8.09,.79,1.15,1.6,2.33,2.41,3.5,.06-.09,.12-.18,.18-.27,.32-.49,.73-1.11,1.22-1.59,1.33-1.32,2.68-2.69,3.98-4.01,3.31-3.37,6.73-6.86,10.34-9.9,9.58-8.08,20.78-13.68,33.29-16.64,11.84-2.8,24.02-2.91,36.19-.31,1.86,.4,2.49,1.2,2.61,3.31,.67,12.67,1.49,25.55,2.27,38l.13,1.98c.04,.62,.09,1.24,.14,1.86-.3-9.82-.87-19.14-1.36-26.49-.09-1.39,.08-2.18,.57-2.62,.42-.38,1.06-.48,2.02-.31,1.42,.25,2.88,.43,4.29,.6,.55,.07,1.1,.13,1.64,.2l.04-.51c-.61-.05-1.22-.11-1.83-.16-1.62-.15-3.29-.31-4.93-.29-1.24,.01-2.05-.12-2.13-1.94-.06-1.52-.18-3.06-.29-4.55-.17-2.19-.34-4.45-.34-6.68,0-2.26-.84-2.84-2.5-3.18-14.2-2.85-28.06-2.28-41.19,1.7-12.3,3.73-23.56,10.15-33.49,19.1-2.58,2.33-5.07,4.94-7.48,7.47-1.12,1.17-2.27,2.38-3.43,3.57l-.19,.2-.35-.48c-.18-.25-.4-.56-.62-.86-.96-1.32-1.9-2.7-2.8-4.03-1.97-2.9-4.01-5.91-6.36-8.42-11.91-12.72-26.94-19.85-44.68-21.18-11.43-.86-20.77,.02-29.37,2.77-1.75,.56-3.1,1.18-3.22,3.63-.1,1.95-.36,4.01-.82,6.3-.15,.73-.86,1.74-1.53,1.9-5.42,1.29-5.48,1.35-6.5,7.29-.13,.73-.69,1.6-1.31,2-.59,.39-1.2,.73-1.82,1.05,.54-.17,1-.26,1.37-.26Z"/></g><g><path d="M108.79,246.44s-.03-.04-.03-.03c0,0-.02,0-.03,.01,.02,0,.04,.01,.05,.02Z"/><polygon points="109.5 246.89 108.86 246.7 108.78 246.77 108.67 246.65 108.09 246.46 108.63 246.22 108.77 246.09 109.18 246.5 109.16 246.51 109.5 246.89"/></g><g><path d="M251.32,251.4c6.04-1.44,12.13-2.69,18.24-3.55,5.04-.71,10.16-1.09,15.23-.97,8.16,.19,16.32,.82,24.46,1.45,3.14,.24,6.25,1.02,9.07,1.5-3.45-32.55-5.63-65.05-8.57-97.46-.28,.03-.56,.06-.84,.09,2.72,31.91,5.43,63.81,8.17,95.97-5.08-.75-9.7-1.59-14.35-2.08-20.7-2.21-41.09-.55-60.89,7.15-8.42,3.27-16.8,6.74-24.21,12.58,1.14-.37,2.33-.62,3.37-1.21,9.73-5.61,19.58-10.9,30.32-13.45Z"/><path d="M216.44,266.71l1.04-.82c7.36-5.79,15.68-9.27,24.27-12.61,18.57-7.22,38.52-9.56,61-7.16,3.16,.34,6.29,.83,9.59,1.35,1.46,.23,2.95,.46,4.48,.69l-8.16-95.9,1.3-.14,.02,.24c1.1,12.17,2.11,24.55,3.09,36.54,1.63,19.96,3.32,40.59,5.47,60.92l.03,.31-.3-.05c-.87-.15-1.74-.32-2.67-.5-2.07-.41-4.21-.82-6.38-.99-7.57-.59-16.14-1.26-24.45-1.45-4.75-.11-9.86,.21-15.19,.97-5.45,.77-11.41,1.93-18.22,3.55l-.05-.23,.05,.23c-10.94,2.6-20.95,8.06-30.26,13.43-.78,.45-1.65,.7-2.49,.95-.31,.09-.62,.18-.93,.28l-1.26,.41Zm69.78-21.03c-15.86,0-30.47,2.66-44.3,8.04-8.17,3.17-16.08,6.47-23.14,11.76,.72-.21,1.45-.45,2.1-.82,9.34-5.39,19.39-10.86,30.38-13.48,6.82-1.62,12.8-2.79,18.26-3.56,5.35-.76,10.49-1.08,15.27-.97,8.32,.19,16.91,.86,24.48,1.45,2.19,.17,4.35,.59,6.43,1,.82,.16,1.59,.31,2.36,.45-2.14-20.24-3.82-40.77-5.44-60.62-.97-11.9-1.98-24.21-3.07-36.29l-.38,.04,8.17,96.04-.29-.04c-1.63-.24-3.22-.49-4.78-.73-3.3-.52-6.42-1.01-9.57-1.35-5.65-.6-11.14-.91-16.49-.91Z"/></g><g><path d="M217.43,266.14s.04,.05,.04,.05c.05-.04,.1-.08,.15-.12-.07,.02-.13,.04-.2,.06Z"/><path d="M217.45,266.51l-.15-.17c-.16-.19-.1-.31-.03-.38l.08-.05,1.46-.48-1.37,1.08Z"/></g><g><path d="M96.66,173.96c.03,.25,.06,.51,.08,.76,1.33-.17,2.67-.34,4.45-.57-.69,1.12-1.02,2.14-1.65,2.58-1.43,1.01-1.72,2.46-1.75,4.15-.03,1.78,0,3.57-.12,5.35-.5,6.83-1.14,13.65-1.57,20.49-.36,5.69-.5,11.4-.78,17.09-.17,3.56-.42,7.12-.64,10.68,.2,.02,.4,.04,.6,.06,.21-2.5,.42-5,.64-7.5,.18,.02,.37,.03,.55,.05-.1,10.37-.89,20.69-1.94,31,.2,.52,.42,1.04,.63,1.56,2.12-28.98,4.24-57.96,6.36-86.91-1.53,.38-3.19,.8-4.85,1.21Zm1.48,27.19c-.79-7.77,.47-22.1,2.55-24.16-.88,8.31-1.69,15.99-2.55,24.16Z"/><path d="M95.31,260.67l-.48-1.18c-.18-.43-.35-.87-.52-1.3l-.02-.05v-.06c1.23-12.01,1.84-21.79,1.94-30.77h-.1s-.64,7.49-.64,7.49l-1.06-.11v-.22c.08-1.1,.15-2.21,.22-3.31,.15-2.41,.31-4.91,.43-7.37,.11-2.17,.19-4.35,.28-6.53,.14-3.47,.28-7.05,.5-10.57,.26-4.1,.6-8.25,.93-12.27,.22-2.69,.45-5.48,.65-8.22,.09-1.24,.1-2.5,.11-3.73,0-.54,0-1.07,.02-1.6,.03-1.6,.27-3.22,1.85-4.33,.37-.26,.64-.77,.98-1.42,.11-.21,.23-.44,.37-.68l-4.21,.54-.13-1.2,5.36-1.34-3.01,41.16-3.44,47.07Zm-.55-2.6c.08,.19,.15,.38,.23,.58l6.14-83.93c-.12,.21-.23,.42-.34,.63-.35,.67-.66,1.25-1.12,1.58-1.33,.93-1.62,2.26-1.65,3.96,0,.53-.01,1.07-.02,1.6,0,1.23-.02,2.51-.11,3.76-.2,2.74-.43,5.53-.65,8.22-.33,4.02-.66,8.17-.93,12.27-.23,3.51-.37,7.09-.5,10.56-.09,2.18-.17,4.36-.28,6.53-.12,2.46-.28,4.96-.43,7.38-.06,1.03-.13,2.06-.19,3.08h.14s.64-7.48,.64-7.48l1,.1v.21c-.09,9.03-.71,18.87-1.94,30.97Zm2.15-83.93l.04,.32,4.24-.55,.06-.86-4.34,1.08Zm1.22,29.29l-.23-2.25c-.79-7.8,.48-22.22,2.62-24.35l.47-.46-2.86,27.06Zm2.22-25.49c-1.51,3.21-2.44,13.41-2.16,20.51l2.16-20.51Z"/></g><g><path d="M322.03,248.63v8.88c-2.67-.37-5.12-.72-7.58-1.06-7.42-1.02-14.82-2.21-22.25-3-17.3-1.84-34.42-.57-51.19,4.91-6.37,2.08-12.47,4.94-18.08,9.02,4.55-2,9.11-4,13.66-6.01,9.62-4.23,19.68-6.14,29.87-7.18,4.69-.48,9.45-.86,14.12-.47,10.85,.89,21.68,2.23,32.51,3.49,3.35,.39,6.67,1.11,10.27,1.72-.38-3.68-.73-7.01-1.08-10.35-.09,.01-.17,.02-.26,.04Z"/><path d="M221.04,268.47l1.75-1.28c5.24-3.81,11.17-6.77,18.14-9.05,16.12-5.27,32.89-6.88,51.29-4.92,5.15,.55,10.37,1.3,15.41,2.03,2.28,.33,4.56,.66,6.85,.97,1.69,.23,3.37,.47,5.12,.71l2.19,.31v-8.81l.7-.1,1.13,10.9-.3-.05c-1.15-.2-2.27-.4-3.38-.61-2.37-.44-4.61-.85-6.88-1.12-1.61-.19-3.22-.38-4.83-.57-9.06-1.06-18.43-2.16-27.67-2.92-4.83-.4-9.8,.03-14.08,.47-12.01,1.22-21.48,3.5-29.8,7.16l-15.64,6.88Zm56.44-15.58c-12.73,0-24.74,1.89-36.4,5.7-6.06,1.98-11.33,4.48-16.04,7.61l11.46-5.04c8.37-3.68,17.88-5.97,29.94-7.2,4.3-.44,9.3-.87,14.17-.47,9.24,.76,18.62,1.86,27.69,2.93,1.61,.19,3.22,.38,4.83,.57,2.29,.27,4.54,.68,6.92,1.12,1,.19,2.02,.37,3.07,.55l-.83-8.02v7.13l-2.73-.38c-1.75-.25-3.44-.48-5.12-.71-2.28-.31-4.57-.64-6.85-.97-5.04-.73-10.25-1.48-15.39-2.03-5.01-.53-9.91-.8-14.7-.8Z"/></g><g><path d="M106.05,162.28c-1.71,1.56-2.78,4.05-4.14,6.12,.14,.12,.29,.24,.43,.35,1.54-2.09,3.07-4.17,4.61-6.26,.24,.15,.47,.3,.71,.46-2.74,30.04-5.47,60.09-8.21,90.13,.24,.03,.47,.06,.71,.09,.4-3.43,.87-6.85,1.18-10.28,1.43-15.61,2.81-31.23,4.23-46.85,.83-9.15,1.78-18.28,2.55-27.43,.37-4.41,.48-8.86,.7-13.29-.1,.39-.21,.77-.23,1.16-.12,2.36-.74,4.16-2.53,5.79Z"/><path d="M100.37,253.44l-1.17-.15,.02-.22,8.19-89.99-.4-.26-4.63,6.28-.78-.64,.11-.18c.41-.63,.8-1.31,1.18-1.97,.87-1.52,1.78-3.09,3-4.2,1.62-1.47,2.33-3.11,2.46-5.63,.02-.34,.1-.67,.18-.99l.06-.22,.46,.07c-.06,1.3-.12,2.61-.17,3.92-.13,3.08-.26,6.26-.52,9.38-.47,5.56-1.01,11.21-1.54,16.68-.34,3.59-.69,7.17-1.01,10.76-.65,7.08-1.28,14.16-1.92,21.25-.77,8.53-1.53,17.07-2.31,25.6-.22,2.36-.51,4.75-.79,7.06-.13,1.08-.26,2.15-.39,3.23l-.03,.23Zm-.66-.55l.25,.03c.12-1,.24-2,.36-3,.28-2.31,.58-4.69,.79-7.04,.78-8.53,1.55-17.07,2.31-25.6,.64-7.08,1.27-14.17,1.92-21.25,.33-3.59,.67-7.17,1.02-10.76,.52-5.46,1.07-11.11,1.54-16.67,.26-3.11,.39-6.29,.52-9.36,0-.08,0-.16,0-.23-.4,1.36-1.12,2.45-2.21,3.45-1.16,1.06-2.05,2.6-2.91,4.09-.35,.6-.71,1.23-1.08,1.82l.08,.06,4.59-6.23,1.01,.65v.14s-8.2,89.91-8.2,89.91Z"/></g><g><path d="M108.84,155.03c0,.1,0,.2-.01,.3,.02-.08,.04-.16,.06-.25,0,0,0,0,0,0,0,0,0,0,0,0l-.04-.05Z"/><path d="M109.06,155.36l-.47-.04,.04-.92,.49,.61-.02,.11c-.02,.08-.03,.15-.05,.23Z"/></g><g><path d="M108.87,155.08s0,0,0,0c-.01-.01-.04-.05-.04-.05l.04,.05Z"/><polygon points="108.69 155.22 108.65 155.17 109.02 154.88 109.05 154.93 109.05 154.93 109.06 154.93 108.69 155.22"/></g><path d="M146.99,122.09c-.06,0-.11,.01-.17,.02,0,0,.03,.04,.04,.05,.04-.02,.09-.04,.13-.07Z"/><path d="M146.86,122.15s-.04-.05-.04-.05c0,.1,0,.2-.01,.3,.02-.08,.04-.16,.06-.25,0,0,0,0,0,0Z"/><path class="cls-8" d="M124.1,299.99h30.67l31.15-143.68,30.94,43.84,31.16-43.62,11.71,50.07s-73.81-10.61-73.03,48.06c.89,66.41,107.66,41.01,107.66,41.01v-32.61s-74.62,13.86-74.45-9.59c.17-23.83,74.98-19.28,74.98-19.28l-.14-27.77-17.6-92.87h-29.26l-30.6,55.01-29.99-55.01h-31.42l-31.78,186.44Z"/><g><g><path class="cls-4" d="M174.6,384.31l-3.33-.81,3.13-12.86-8,11.67-1.75-14.04-3.13,12.86-3.33-.81,5.4-22.2,3.33,.81,1.84,13.64,7.9-11.27,3.33,.81-5.4,22.2Z"/><path class="cls-3" d="M174.95,384.87l-4.24-1.03,2.63-10.83-7.26,10.58-1.58-12.73-2.64,10.83-4.24-1.03,5.62-23.11,4.1,1,1.73,12.78,7.4-10.56,4.1,1-5.62,23.11Zm-3.11-1.72l2.42,.59,5.18-21.29-2.57-.63-8.41,11.99-1.96-14.51-2.57-.63-5.18,21.29,2.43,.59,3.62-14.88,1.91,15.35,8.75-12.76-3.62,14.88Z"/></g><g><path class="cls-4" d="M194.58,386.32l-3.48-.36,2.33-22.73,3.48,.36-2.33,22.73Z"/><path class="cls-3" d="M195,386.84l-4.41-.45,2.43-23.66,4.41,.45-2.43,23.66Zm-3.38-1.29l2.55,.26,2.24-21.8-2.55-.26-2.24,21.8Z"/></g><g><path class="cls-4" d="M223.94,386.69l-3.43,.11-.41-13.23-4.6,13.38-5.42-13.07,.41,13.23-3.43,.11-.71-22.84,3.43-.11,5.41,12.66,4.62-12.97,3.43-.11,.71,22.84Z"/><path class="cls-3" d="M215.54,388.27l-4.92-11.85,.35,11.14-4.36,.13-.74-23.77,4.21-.13,5.07,11.86,4.32-12.15,4.21-.13,.74,23.77-4.36,.14-.35-11.14-4.18,12.13Zm-8.71-23.44l.68,21.9,2.49-.08-.47-15.31,5.93,14.29,5.03-14.63,.47,15.31,2.49-.08-.68-21.9-2.64,.08-4.91,13.8-5.75-13.47-2.64,.08Z"/></g><g><path class="cls-4" d="M239.71,384.49l-3.45,.56-3.69-22.55,3.45-.56,3.69,22.55Z"/><path class="cls-3" d="M235.87,385.59l-3.84-23.47,4.37-.72,3.84,23.47-4.37,.72Zm-2.76-22.7l3.54,21.63,2.53-.41-3.54-21.63-2.53,.41Z"/></g><g><path class="cls-4" d="M258.74,376.68c1.53-.47,2.41-1.56,2.65-3.27l3.54,.7c-.47,3.08-2.19,5.09-5.18,6.03-2.44,.72-4.61,.28-6.51-1.32-1.9-1.6-3.37-4.19-4.42-7.76-1.05-3.58-1.21-6.55-.48-8.92,.73-2.37,2.32-3.92,4.76-4.63,3.02-.82,5.56-.06,7.62,2.28l-2.6,2.51c-1.13-1.3-2.46-1.74-4-1.31-1.45,.43-2.29,1.46-2.53,3.11-.24,1.65-.01,3.63,.67,5.97,.69,2.33,1.57,4.13,2.66,5.39,1.09,1.26,2.36,1.67,3.81,1.25Z"/><path class="cls-3" d="M257.56,380.95c-1.68,0-3.23-.59-4.62-1.76-1.96-1.65-3.5-4.34-4.57-7.99-1.07-3.65-1.23-6.74-.48-9.19,.78-2.52,2.48-4.18,5.08-4.94,3.2-.87,5.92-.05,8.1,2.42l.3,.34-3.28,3.16-.32-.37c-1.01-1.17-2.15-1.55-3.52-1.17-1.26,.37-1.98,1.26-2.19,2.72-.23,1.57,0,3.51,.66,5.77,.66,2.26,1.53,4.01,2.57,5.21,.97,1.11,2.05,1.47,3.32,1.1,1.35-.42,2.11-1.36,2.32-2.88l.07-.49,4.47,.88-.07,.44c-.49,3.25-2.34,5.41-5.5,6.41-.8,.24-1.58,.35-2.33,.35Zm-2.2-23.29c-.68,0-1.39,.1-2.14,.3-2.29,.67-3.75,2.09-4.44,4.32-.7,2.27-.54,5.18,.48,8.65,1.02,3.47,2.46,6.01,4.28,7.54,1.79,1.51,3.77,1.91,6.08,1.23,2.67-.85,4.24-2.56,4.77-5.22l-2.63-.52c-.36,1.62-1.33,2.68-2.89,3.16h0c-1.63,.48-3.08,.01-4.29-1.39-1.13-1.3-2.05-3.17-2.76-5.56-.7-2.39-.93-4.46-.69-6.17,.26-1.83,1.23-3.01,2.86-3.49,1.58-.44,2.97-.07,4.14,1.1l1.93-1.86c-1.37-1.41-2.92-2.11-4.7-2.11Z"/></g></g><path class="cls-7" d="M211.98,340.21c-34.25,0-66.45-13.34-90.67-37.56-24.22-24.22-37.56-56.42-37.56-90.67s13.34-66.45,37.56-90.67c24.22-24.22,56.42-37.56,90.67-37.56s66.45,13.34,90.67,37.56c24.22,24.22,37.56,56.42,37.56,90.67s-13.34,66.45-37.56,90.67c-24.22,24.22-56.42,37.56-90.67,37.56Zm0-251.79c-33,0-64.03,12.85-87.37,36.19-23.34,23.34-36.19,54.37-36.19,87.37s12.85,64.03,36.19,87.37c23.34,23.34,54.37,36.19,87.37,36.19s64.03-12.85,87.37-36.19c23.34-23.34,36.19-54.37,36.19-87.37s-12.85-64.03-36.19-87.37c-23.34-23.34-54.37-36.19-87.37-36.19Z"/><g><path class="cls-5" d="M368.72,253.58l5.56-5.56,5.56,5.56-5.56,5.56-5.56-5.56Z"/><path class="cls-3" d="M374.28,259.48l-5.89-5.89,5.89-5.89,5.89,5.89-5.89,5.89Zm-5.23-5.89l5.23,5.23,5.23-5.23-5.23-5.23-5.23,5.23Z"/></g><g><path class="cls-2" d="M318.67,340.78c-.34,1.31-.89,2.61-.97,3.92-.23,3.64-1.81,6.15-6.01,8.3,.5-2.5,.91-4.53,1.43-7.15-5.19,1.85-8.22,8.99-14.76,6.6,2.71-6.43,9.97-3.46,14.09-7.94l-5.97-2.58c2.95-2.37,5.52-1.98,8.16-1.44,1.32,.27,2.7,.27,4.05,.38l-.02-.1Z"/><path class="cls-2" d="M318.69,340.88c.8-1.08,1.61-2.16,2.54-3.4-2.11-.42-4.01-.79-6.3-1.24,3.44-4.23,7.16-2.64,10.64-2.7,.84,4.25,1.61,8.53-3.64,12.36,.05-2.69,.08-4.66,.12-6.98-1.16,.64-2.28,1.24-3.39,1.86,0,0,.03,.1,.03,.1Z"/><path class="cls-2" d="M330.98,336.31c-.89-2.37-1.16-5.05-2.59-6.34-1.28-1.15-3.83-.78-6.19-1.13,1.99-3.31,4.71-3.62,7.53-3.74,2.34-.1,3.12,1.64,3.53,3.47,.64,2.82,.6,5.62-2.29,7.74Z"/><path class="cls-2" d="M328.22,320.96c.89-3.55,3.03-4.72,5.17-4.79,1.66-.05,3.77,.78,4.82,2.03,1.89,2.25,1.7,5.14-.3,8.46-.68-1.08-1.18-1.84-1.63-2.62-.74-1.3-1.35-2.69-2.23-3.87-.25-.33-1.23-.13-1.86-.03-1.14,.18-2.27,.47-3.98,.83Z"/><path class="cls-2" d="M340.3,303.65c.35,.79,.83,2.45,1.74,3.78,1.78,2.61,2.1,4.77,.76,7.79-.1-.03-.25-.02-.28-.08-2-3.73-4.02-7.35-9.07-3.7-.16,.11-.53-.12-1.84-.46,1.79-1.69,3.05-3,4.44-4.15,1.57-1.29,3.24-2.43,4.26-3.18Z"/></g><g><path class="cls-2" d="M107.62,340.32c.41,1.29,1.04,2.55,1.2,3.86,.45,3.62,2.18,6.03,6.5,7.93-.65-2.46-1.18-4.46-1.86-7.05,5.29,1.54,8.74,8.48,15.12,5.7-3.08-6.26-10.15-2.86-14.54-7.09,2.01-1.01,3.68-1.86,5.81-2.93-3.09-2.19-5.63-1.64-8.23-.95-1.3,.35-2.68,.43-4.02,.63l.02-.1Z"/><path class="cls-2" d="M107.6,340.42c-.87-1.03-1.74-2.06-2.73-3.24,2.08-.54,3.96-1.03,6.21-1.62-3.68-4.02-7.3-2.2-10.78-2.06-.58,4.29-1.1,8.61,4.37,12.12-.21-2.68-.36-4.64-.54-6.96,1.2,.56,2.35,1.1,3.5,1.65,0,0-.02,.1-.02,.1Z"/><path class="cls-2" d="M95.06,336.6c.74-2.42,.86-5.11,2.21-6.48,1.21-1.23,3.78-1,6.11-1.5-2.19-3.19-4.92-3.33-7.74-3.28-2.34,.04-3.01,1.82-3.32,3.68-.47,2.85-.26,5.65,2.75,7.59Z"/><path class="cls-2" d="M96.9,321.1c-1.1-3.49-3.3-4.53-5.45-4.47-1.66,.05-3.72,1-4.69,2.31-1.75,2.36-1.38,5.23,.8,8.42,.61-1.12,1.07-1.9,1.47-2.72,.66-1.34,1.19-2.77,1.99-4,.23-.35,1.22-.2,1.86-.14,1.15,.11,2.3,.33,4.02,.59Z"/><path class="cls-2" d="M83.81,304.55c-.3,.81-.68,2.5-1.51,3.88-1.62,2.71-1.82,4.89-.29,7.82,.09-.03,.25-.03,.28-.1,1.77-3.84,3.58-7.58,8.83-4.23,.16,.1,.53-.15,1.81-.57-1.89-1.58-3.22-2.82-4.68-3.88-1.64-1.2-3.38-2.23-4.45-2.92Z"/></g></svg>